<svg id="Layer_1" data-name="Layer 1" xmlns="http://www.w3.org/2000/svg" viewBox="0 0 288 288"><defs><style>.cls-1{fill:#404349;}.cls-2{font-size:25.24px;font-family:Poppins-SemiBold, Poppins;font-weight:600;letter-spacing:0.01em;}</style></defs><title>black-wordMark-t-</title><path class="cls-1" d="M38.44,193v-7.09h2.19a1.54,1.54,0,0,1,1,.29,1,1,0,0,1,.37.89v.86a1.85,1.85,0,0,1-.09.6,1,1,0,0,1-.27.41.76.76,0,0,1-.4.22,2.32,2.32,0,0,1-.39.07v0a1.7,1.7,0,0,1,.46.06.68.68,0,0,1,.38.21,1,1,0,0,1,.28.42,1.66,1.66,0,0,1,.11.61v1a1.73,1.73,0,0,1-.2.91.94.94,0,0,1-.53.43,2.78,2.78,0,0,1-.81.11Zm.75-3.93h1.05a1,1,0,0,0,.74-.27,1,1,0,0,0,.25-.76v-.82a.82.82,0,0,0-.23-.65.84.84,0,0,0-.57-.21H39.19Zm0,3.5h1.18a1.42,1.42,0,0,0,.48-.08.57.57,0,0,0,.32-.31,1.77,1.77,0,0,0,.11-.69v-1a.85.85,0,0,0-.29-.76,1.3,1.3,0,0,0-.73-.19H39.19Z"/><path class="cls-1" d="M45.41,193.07a1.55,1.55,0,0,1-.93-.23.92.92,0,0,1-.38-.58,3.1,3.1,0,0,1-.09-.76V187h.75v4.36a4.41,4.41,0,0,0,0,.52.62.62,0,0,0,.22.42,1.31,1.31,0,0,0,1.13.06.84.84,0,0,0,.27-.26.62.62,0,0,0,.12-.27V187h.75V193h-.64l-.06-.65a1.06,1.06,0,0,1-.39.52A1.27,1.27,0,0,1,45.41,193.07Z"/><path class="cls-1" d="M49.76,186.3a.48.48,0,0,1-.33-.12.46.46,0,0,1-.13-.32.46.46,0,0,1,.13-.31.48.48,0,0,1,.33-.12.49.49,0,0,1,.32.12.42.42,0,0,1,.13.31.42.42,0,0,1-.13.32A.45.45,0,0,1,49.76,186.3ZM49.39,193V187h.73V193Z"/><path class="cls-1" d="M52.23,193v-7.6H53V193Z"/><path class="cls-1" d="M56.39,193.07a1.89,1.89,0,0,1-.73-.12.9.9,0,0,1-.45-.32,1.22,1.22,0,0,1-.23-.53,3.88,3.88,0,0,1-.06-.72v-3a2.74,2.74,0,0,1,.07-.6,1.27,1.27,0,0,1,.22-.47,1.21,1.21,0,0,1,.42-.31,1.84,1.84,0,0,1,.67-.11,1.7,1.7,0,0,1,.75.14,1,1,0,0,1,.39.35v-2h.75V193h-.52l-.07-.56a1.37,1.37,0,0,1-.21.3A1,1,0,0,1,57,193,1.58,1.58,0,0,1,56.39,193.07Zm.13-.46a1,1,0,0,0,.54-.12.71.71,0,0,0,.27-.33,1.63,1.63,0,0,0,.09-.45,4.1,4.1,0,0,0,0-.49V188a.89.89,0,0,0-.12-.24.78.78,0,0,0-.27-.23,1.13,1.13,0,0,0-.49-.09,1.2,1.2,0,0,0-.53.09.59.59,0,0,0-.26.26,1.06,1.06,0,0,0-.09.37c0,.13,0,.27,0,.42v2.92a4.8,4.8,0,0,0,0,.55.71.71,0,0,0,.22.43A.88.88,0,0,0,56.52,192.61Z"/><path class="cls-1" d="M60.66,186.3a.48.48,0,0,1-.33-.12.42.42,0,0,1-.13-.32.42.42,0,0,1,.13-.31.48.48,0,0,1,.33-.12.45.45,0,0,1,.31.12.43.43,0,0,1,0,.63A.47.47,0,0,1,60.66,186.3ZM60.28,193V187H61V193Z"/><path class="cls-1" d="M63.13,193V187h.61l.09.64a.91.91,0,0,1,.46-.57,1.58,1.58,0,0,1,.71-.17,1.56,1.56,0,0,1,.93.22,1,1,0,0,1,.37.58,3.07,3.07,0,0,1,.09.77V193h-.75v-4.36c0-.14,0-.28,0-.41a1.06,1.06,0,0,0-.09-.37.57.57,0,0,0-.26-.25,1,1,0,0,0-.52-.1,1,1,0,0,0-.49.11.77.77,0,0,0-.27.27,1,1,0,0,0-.13.28V193Z"/><path class="cls-1" d="M69.77,194.37h-.31l-.36,0-.3,0-.16,0v-.43l.41,0a3,3,0,0,0,.49,0l.35,0a.9.9,0,0,0,.4-.13,1.08,1.08,0,0,0,.34-.36,1.48,1.48,0,0,0,.13-.7v-.82a1,1,0,0,1-.22.41.93.93,0,0,1-.39.28,1.44,1.44,0,0,1-.59.11,2.27,2.27,0,0,1-.43,0,1.05,1.05,0,0,1-.44-.18,1,1,0,0,1-.31-.46,2.65,2.65,0,0,1-.12-.89v-2.75a1.92,1.92,0,0,1,.11-.74,1,1,0,0,1,.28-.43,1,1,0,0,1,.42-.19,2.5,2.5,0,0,1,1.23.06.68.68,0,0,1,.46.46l.09-.47h.64v5.41a2.58,2.58,0,0,1-.11.82,1.93,1.93,0,0,1-.33.6,1.29,1.29,0,0,1-.54.36A2.09,2.09,0,0,1,69.77,194.37Zm.06-2.15a.81.81,0,0,0,.59-.2,1,1,0,0,0,.27-.51,3.15,3.15,0,0,0,.06-.61V188a.77.77,0,0,0-.14-.24.81.81,0,0,0-.28-.22,1,1,0,0,0-.5-.1.8.8,0,0,0-.64.22,1.18,1.18,0,0,0-.19.79v2.87a1.43,1.43,0,0,0,.08.51.52.52,0,0,0,.23.27.61.61,0,0,0,.28.11Z"/><path class="cls-1" d="M77.86,193a1.8,1.8,0,0,1-.48-.06.83.83,0,0,1-.37-.2,1,1,0,0,1-.24-.35,1.54,1.54,0,0,1-.08-.56V187.5h-.53v-.38l.57-.08.14-1.12h.56V187h1.28v.46H77.43v4.18a1.19,1.19,0,0,0,.12.56c.08.15.25.23.53.23l.36,0,.27,0v.48a2,2,0,0,0-.33,0A4.28,4.28,0,0,1,77.86,193Z"/><path class="cls-1" d="M80.32,193v-7.55H81v2.12a.94.94,0,0,1,.42-.44,1.5,1.5,0,0,1,.74-.16,1.56,1.56,0,0,1,.93.22,1,1,0,0,1,.38.58,3.64,3.64,0,0,1,.08.77V193h-.74v-4.3c0-.12,0-.25,0-.38a.81.81,0,0,0-.09-.37.61.61,0,0,0-.26-.27,1.06,1.06,0,0,0-.52-.11,1,1,0,0,0-.5.1.69.69,0,0,0-.29.23.61.61,0,0,0-.1.23V193Z"/><path class="cls-1" d="M87.13,193.08a2.89,2.89,0,0,1-1-.14.91.91,0,0,1-.54-.51,2.76,2.76,0,0,1-.17-1.08v-3a1.43,1.43,0,0,1,.38-1.14,2,2,0,0,1,1.25-.31,1.91,1.91,0,0,1,1.23.31,1.43,1.43,0,0,1,.38,1.14v1.54h-2.5v1.67a1.31,1.31,0,0,0,.18.8.92.92,0,0,0,.73.22.86.86,0,0,0,.68-.21,1.42,1.42,0,0,0,.16-.81v-.76h.75v.5a2.74,2.74,0,0,1-.17,1.07.9.9,0,0,1-.51.52A2.21,2.21,0,0,1,87.13,193.08Zm-.94-3.54h1.75v-1.21a1.27,1.27,0,0,0-.16-.73.86.86,0,0,0-.7-.23.89.89,0,0,0-.71.23,1.19,1.19,0,0,0-.18.73Z"/><path class="cls-1" d="M93.76,193v-5.24h-.37v-.47h.37v-.72a1.52,1.52,0,0,1,.08-.55.81.81,0,0,1,.22-.36.83.83,0,0,1,.34-.2,1.51,1.51,0,0,1,.44-.06h.39l.36,0,.24,0v.42a7,7,0,0,0-.79-.06.43.43,0,0,0-.43.25,1.29,1.29,0,0,0-.12.54v.69h1.34v.47H94.49V193Z"/><path class="cls-1" d="M98.65,193.07a1.52,1.52,0,0,1-.92-.23,1,1,0,0,1-.39-.58,3.69,3.69,0,0,1-.08-.76V187H98v4.36a4.41,4.41,0,0,0,0,.52.67.67,0,0,0,.22.42,1,1,0,0,0,.64.16,1,1,0,0,0,.49-.1,1,1,0,0,0,.28-.26,1,1,0,0,0,.12-.27V187h.74V193h-.63l-.06-.65a1.19,1.19,0,0,1-.39.52A1.28,1.28,0,0,1,98.65,193.07Z"/><path class="cls-1" d="M103.91,193a1.86,1.86,0,0,1-.48-.06.89.89,0,0,1-.37-.2,1,1,0,0,1-.24-.35,1.79,1.79,0,0,1-.08-.56V187.5h-.53v-.38l.58-.08.13-1.12h.56V187h1.28v.46h-1.28v4.18a1.19,1.19,0,0,0,.12.56.55.55,0,0,0,.53.23l.36,0,.27,0v.48a2,2,0,0,0-.33,0A4.17,4.17,0,0,1,103.91,193Z"/><path class="cls-1" d="M107.68,193.07a1.55,1.55,0,0,1-.93-.23,1,1,0,0,1-.38-.58,3.69,3.69,0,0,1-.08-.76V187H107v4.36a4.41,4.41,0,0,0,0,.52.62.62,0,0,0,.22.42,1,1,0,0,0,.64.16,1,1,0,0,0,.49-.1,1,1,0,0,0,.28-.26,1,1,0,0,0,.12-.27V187h.74V193h-.64l-.06-.65a1.06,1.06,0,0,1-.39.52A1.23,1.23,0,0,1,107.68,193.07Z"/><path class="cls-1" d="M111.66,193V187h.62l.09.63a.85.85,0,0,1,.43-.48,2.29,2.29,0,0,1,.6-.18,1.54,1.54,0,0,1,.64,0v.58a.4.4,0,0,0-.16,0h-.26a1.1,1.1,0,0,0-.26.06,1.08,1.08,0,0,0-.68.29.87.87,0,0,0-.28.68V193Z"/><path class="cls-1" d="M117.07,193.08a3,3,0,0,1-1-.14.92.92,0,0,1-.53-.51,2.59,2.59,0,0,1-.17-1.08v-3a1.4,1.4,0,0,1,.38-1.14,1.94,1.94,0,0,1,1.25-.31,1.91,1.91,0,0,1,1.23.31,1.43,1.43,0,0,1,.38,1.14v1.54h-2.5v1.67a1.31,1.31,0,0,0,.18.8.91.91,0,0,0,.73.22.82.82,0,0,0,.67-.21,1.33,1.33,0,0,0,.17-.81v-.76h.75v.5a2.74,2.74,0,0,1-.17,1.07.93.93,0,0,1-.51.52A2.21,2.21,0,0,1,117.07,193.08Zm-.94-3.54h1.75v-1.21a1.19,1.19,0,0,0-.17-.73.82.82,0,0,0-.69-.23.89.89,0,0,0-.71.23,1.19,1.19,0,0,0-.18.73Z"/><path class="cls-1" d="M125.07,193.05a2.05,2.05,0,0,1-1-.2,1,1,0,0,1-.48-.59,3.23,3.23,0,0,1-.13-.94v-2.77a2.59,2.59,0,0,1,.12-.83,1,1,0,0,1,.48-.57,2.66,2.66,0,0,1,2.07,0,1,1,0,0,1,.47.57,2.58,2.58,0,0,1,.13.83v2.77a2.91,2.91,0,0,1-.14.94,1,1,0,0,1-.48.59A2.05,2.05,0,0,1,125.07,193.05Zm0-.45a.88.88,0,0,0,.6-.17.8.8,0,0,0,.24-.42,3.19,3.19,0,0,0,0-.54v-3a3.07,3.07,0,0,0,0-.53.82.82,0,0,0-.24-.41.88.88,0,0,0-.6-.16.87.87,0,0,0-.59.16.7.7,0,0,0-.24.41,2.32,2.32,0,0,0,0,.53v3a2.41,2.41,0,0,0,0,.54.69.69,0,0,0,.24.42A.87.87,0,0,0,125.07,192.6Z"/><path class="cls-1" d="M128.77,193v-5.24h-.37v-.47h.37v-.72a1.52,1.52,0,0,1,.08-.55.81.81,0,0,1,.22-.36.83.83,0,0,1,.34-.2,1.51,1.51,0,0,1,.44-.06h.39l.36,0,.24,0v.42a7,7,0,0,0-.79-.06.43.43,0,0,0-.43.25,1.29,1.29,0,0,0-.12.54v.69h1.34v.47H129.5V193Z"/><path class="cls-1" d="M136.69,193a1.86,1.86,0,0,1-.48-.06.89.89,0,0,1-.37-.2,1,1,0,0,1-.24-.35,1.79,1.79,0,0,1-.08-.56V187.5H135v-.38l.58-.08.13-1.12h.56V187h1.28v.46h-1.28v4.18a1.19,1.19,0,0,0,.12.56.55.55,0,0,0,.53.23l.36,0,.27,0v.48a2,2,0,0,0-.33,0A4.17,4.17,0,0,1,136.69,193Z"/><path class="cls-1" d="M139.15,193v-7.55h.71v2.12a.94.94,0,0,1,.42-.44,1.53,1.53,0,0,1,.74-.16,1.56,1.56,0,0,1,.93.22,1,1,0,0,1,.38.58,3.64,3.64,0,0,1,.08.77V193h-.74v-4.3c0-.12,0-.25,0-.38a1.18,1.18,0,0,0-.09-.37.64.64,0,0,0-.27-.27,1.06,1.06,0,0,0-.52-.11,1,1,0,0,0-.5.1.66.66,0,0,0-.28.23.67.67,0,0,0-.11.23V193Z"/><path class="cls-1" d="M146,193.08a2.89,2.89,0,0,1-1-.14.91.91,0,0,1-.54-.51,2.76,2.76,0,0,1-.17-1.08v-3a1.43,1.43,0,0,1,.38-1.14,2,2,0,0,1,1.25-.31,1.91,1.91,0,0,1,1.23.31,1.43,1.43,0,0,1,.38,1.14v1.54H145v1.67a1.31,1.31,0,0,0,.18.8.91.91,0,0,0,.73.22.84.84,0,0,0,.67-.21,1.41,1.41,0,0,0,.17-.81v-.76h.74v.5a2.74,2.74,0,0,1-.17,1.07.9.9,0,0,1-.51.52A2.21,2.21,0,0,1,146,193.08Zm-.93-3.54h1.75v-1.21a1.27,1.27,0,0,0-.17-.73.85.85,0,0,0-.7-.23.86.86,0,0,0-.7.23,1.19,1.19,0,0,0-.18.73Z"/><path class="cls-1" d="M152,193l1.57-7.09h1l1.55,7.09h-.82l-.38-1.64h-1.74l-.36,1.64Zm1.17-2.06h1.7l-.83-4.1Z"/><path class="cls-1" d="M157.88,193v-5.24h-.37v-.47h.37v-.72A1.52,1.52,0,0,1,158,186a.81.81,0,0,1,.22-.36.83.83,0,0,1,.34-.2,1.51,1.51,0,0,1,.44-.06h.39l.36,0,.24,0v.42a7,7,0,0,0-.79-.06.43.43,0,0,0-.43.25,1.29,1.29,0,0,0-.12.54v.69H160v.47h-1.34V193Z"/><path class="cls-1" d="M161.46,193V187h.63l.08.63a.88.88,0,0,1,.43-.48,2.29,2.29,0,0,1,.6-.18,1.58,1.58,0,0,1,.65,0v.58a.47.47,0,0,0-.17,0h-.26a1,1,0,0,0-.25.06,1.11,1.11,0,0,0-.69.29.9.9,0,0,0-.27.68V193Z"/><path class="cls-1" d="M165.71,186.3a.48.48,0,0,1-.33-.12.42.42,0,0,1-.13-.32.42.42,0,0,1,.13-.31.48.48,0,0,1,.33-.12.45.45,0,0,1,.31.12.39.39,0,0,1,.14.31.42.42,0,0,1-.13.32A.47.47,0,0,1,165.71,186.3Zm-.38,6.67V187h.74V193Z"/><path class="cls-1" d="M169.7,193.08a2.87,2.87,0,0,1-1-.14.92.92,0,0,1-.54-.5,2.73,2.73,0,0,1-.17-1.08v-2.92a1.51,1.51,0,0,1,.38-1.19,2.6,2.6,0,0,1,2.48,0,1.44,1.44,0,0,1,.38,1.15v.78h-.74v-.8a1.3,1.3,0,0,0-.17-.75c-.11-.16-.34-.24-.7-.24a.83.83,0,0,0-.7.24,1.21,1.21,0,0,0-.18.75v3.19a1.38,1.38,0,0,0,.18.81.91.91,0,0,0,.73.23.8.8,0,0,0,.67-.23,1.43,1.43,0,0,0,.17-.81v-.81h.74v.61a2.69,2.69,0,0,1-.17,1.06.91.91,0,0,1-.51.51A2.3,2.3,0,0,1,169.7,193.08Z"/><path class="cls-1" d="M174.26,193.05a2.15,2.15,0,0,1-.56-.07.93.93,0,0,1-.48-.36,1.57,1.57,0,0,1-.2-.88v-.58a1.27,1.27,0,0,1,.37-1,3.1,3.1,0,0,1,1-.66,6.16,6.16,0,0,0,.66-.36,1.22,1.22,0,0,0,.39-.35.86.86,0,0,0,.13-.51v-.25a.75.75,0,0,0-.12-.45.62.62,0,0,0-.31-.21,1.47,1.47,0,0,0-.42-.06.74.74,0,0,0-.7.29,1.72,1.72,0,0,0-.17.87v.5h-.69v-.57a2.39,2.39,0,0,1,.12-.79,1.09,1.09,0,0,1,.46-.54,2,2,0,0,1,1-.19,2.7,2.7,0,0,1,1,.15.79.79,0,0,1,.45.45,1.72,1.72,0,0,1,.12.68V193h-.73l0-.74a1,1,0,0,1-.51.61A1.62,1.62,0,0,1,174.26,193.05Zm.27-.5a.89.89,0,0,0,.79-.38,1.93,1.93,0,0,0,.24-1v-1.9a1,1,0,0,1-.39.35l-.57.31a2.61,2.61,0,0,0-.63.5,1.09,1.09,0,0,0-.22.71v.47a1.32,1.32,0,0,0,.12.64.57.57,0,0,0,.3.26A1.13,1.13,0,0,0,174.53,192.55Z"/><path class="cls-1" d="M178.32,193V187h.61l.1.64a.93.93,0,0,1,.45-.57,1.61,1.61,0,0,1,.71-.17,1.56,1.56,0,0,1,.93.22,1,1,0,0,1,.38.58,3.64,3.64,0,0,1,.08.77V193h-.74v-4.36c0-.14,0-.28,0-.41a1.06,1.06,0,0,0-.09-.37.63.63,0,0,0-.26-.25,1.09,1.09,0,0,0-.53-.1,1,1,0,0,0-.49.11.87.87,0,0,0-.27.27,1.38,1.38,0,0,0-.13.28V193Z"/><path class="cls-1" d="M188.09,193.07a2.48,2.48,0,0,1-.91-.14,1.06,1.06,0,0,1-.49-.37,1.42,1.42,0,0,1-.21-.54,4.26,4.26,0,0,1,0-.63v-.45h.75v.56a5.17,5.17,0,0,0,0,.57.59.59,0,0,0,.22.4,1.06,1.06,0,0,0,.64.15.93.93,0,0,0,.59-.15.59.59,0,0,0,.23-.37,2.27,2.27,0,0,0,0-.42v-.34a1.08,1.08,0,0,0-.11-.52.92.92,0,0,0-.34-.37,2.76,2.76,0,0,0-.6-.31,4.16,4.16,0,0,1-.7-.33,1.32,1.32,0,0,1-.47-.47,1.3,1.3,0,0,1-.18-.72v-.36a1.32,1.32,0,0,1,.37-1,1.73,1.73,0,0,1,1.24-.36,2.32,2.32,0,0,1,.92.15,1,1,0,0,1,.5.51,2.12,2.12,0,0,1,.16.91v.5H189v-.59a1.27,1.27,0,0,0-.2-.82.84.84,0,0,0-.65-.22.81.81,0,0,0-.68.24,1,1,0,0,0-.17.6v.32a1,1,0,0,0,.15.57,1.2,1.2,0,0,0,.43.36,7.06,7.06,0,0,0,.66.31,3.86,3.86,0,0,1,.61.31,1.29,1.29,0,0,1,.43.44,1.65,1.65,0,0,1,.15.77v.28a2.15,2.15,0,0,1-.12.73,1,1,0,0,1-.46.56A2,2,0,0,1,188.09,193.07Z"/><path class="cls-1" d="M191.65,194.36V187h.7l0,.52a1.09,1.09,0,0,1,.35-.43,1.33,1.33,0,0,1,.79-.18,1.66,1.66,0,0,1,.86.19,1,1,0,0,1,.42.53,2.37,2.37,0,0,1,.12.78v2.93a3.3,3.3,0,0,1-.1.87,1,1,0,0,1-.41.59,1.56,1.56,0,0,1-.89.21,1.46,1.46,0,0,1-.72-.14,1,1,0,0,1-.41-.36v1.81Zm1.63-1.76a1,1,0,0,0,.52-.1.57.57,0,0,0,.26-.25.88.88,0,0,0,.1-.36c0-.14,0-.28,0-.43v-2.89c0-.15,0-.29,0-.43a.88.88,0,0,0-.1-.36.55.55,0,0,0-.26-.26,1,1,0,0,0-.52-.1.92.92,0,0,0-.51.12.76.76,0,0,0-.27.32,1.43,1.43,0,0,0-.09.42c0,.15,0,.3,0,.43v2.83a2.31,2.31,0,0,0,0,.54.61.61,0,0,0,.24.38A1,1,0,0,0,193.28,192.6Z"/><path class="cls-1" d="M198,193.05a2.15,2.15,0,0,1-.56-.07.93.93,0,0,1-.48-.36,1.57,1.57,0,0,1-.2-.88v-.58a1.27,1.27,0,0,1,.37-1,3.1,3.1,0,0,1,1-.66,6.16,6.16,0,0,0,.66-.36,1,1,0,0,0,.39-.35.86.86,0,0,0,.14-.51v-.25a.75.75,0,0,0-.12-.45.64.64,0,0,0-.32-.21,1.42,1.42,0,0,0-.42-.06.74.74,0,0,0-.7.29,1.72,1.72,0,0,0-.17.87v.5h-.68v-.57a2.39,2.39,0,0,1,.12-.79,1.07,1.07,0,0,1,.45-.54,2,2,0,0,1,1-.19,2.7,2.7,0,0,1,1,.15.85.85,0,0,1,.46.45,1.94,1.94,0,0,1,.11.68V193h-.73v-.74a1.08,1.08,0,0,1-.52.61A1.62,1.62,0,0,1,198,193.05Zm.27-.5a.89.89,0,0,0,.79-.38,1.93,1.93,0,0,0,.24-1v-1.9a1,1,0,0,1-.39.35l-.57.31a2.61,2.61,0,0,0-.63.5,1.09,1.09,0,0,0-.22.71v.47a1.32,1.32,0,0,0,.12.64.57.57,0,0,0,.3.26A1.13,1.13,0,0,0,198.22,192.55Z"/><path class="cls-1" d="M203.53,193.08a2.87,2.87,0,0,1-1-.14.93.93,0,0,1-.53-.5,2.56,2.56,0,0,1-.17-1.08v-2.92a1.51,1.51,0,0,1,.37-1.19,1.93,1.93,0,0,1,1.26-.32,2,2,0,0,1,1.23.31,1.44,1.44,0,0,1,.37,1.15v.78h-.74v-.8a1.3,1.3,0,0,0-.17-.75.79.79,0,0,0-.69-.24.85.85,0,0,0-.71.24,1.21,1.21,0,0,0-.18.75v3.19a1.38,1.38,0,0,0,.18.81.91.91,0,0,0,.73.23.79.79,0,0,0,.67-.23,1.43,1.43,0,0,0,.17-.81v-.81h.74v.61a2.71,2.71,0,0,1-.16,1.06,1,1,0,0,1-.52.51A2.26,2.26,0,0,1,203.53,193.08Z"/><path class="cls-1" d="M208.54,193.08a2.93,2.93,0,0,1-1-.14,1,1,0,0,1-.54-.51,2.79,2.79,0,0,1-.16-1.08v-3a1.43,1.43,0,0,1,.37-1.14,2,2,0,0,1,1.26-.31,2,2,0,0,1,1.23.31,1.43,1.43,0,0,1,.37,1.14v1.54h-2.49v1.67a1.31,1.31,0,0,0,.18.8.91.91,0,0,0,.73.22.82.82,0,0,0,.67-.21,1.41,1.41,0,0,0,.17-.81v-.76h.74v.5a2.77,2.77,0,0,1-.16,1.07,1,1,0,0,1-.51.52A2.26,2.26,0,0,1,208.54,193.08Zm-.93-3.54h1.75v-1.21a1.27,1.27,0,0,0-.17-.73.82.82,0,0,0-.69-.23.89.89,0,0,0-.71.23,1.19,1.19,0,0,0-.18.73Z"/><path class="cls-1" d="M215.44,186.3a.44.44,0,0,1-.32-.12.43.43,0,0,1-.14-.32.43.43,0,0,1,.14-.31.44.44,0,0,1,.32-.12.47.47,0,0,1,.32.12.43.43,0,0,1,.14.31.43.43,0,0,1-.14.32A.45.45,0,0,1,215.44,186.3Zm-.37,6.67V187h.73V193Z"/><path class="cls-1" d="M217.91,193V187h.61l.1.64a.93.93,0,0,1,.45-.57,1.61,1.61,0,0,1,.71-.17,1.56,1.56,0,0,1,.93.22,1,1,0,0,1,.38.58,3.64,3.64,0,0,1,.08.77V193h-.74v-4.36c0-.14,0-.28,0-.41a.75.75,0,0,0-.09-.37.55.55,0,0,0-.25-.25,1.09,1.09,0,0,0-.53-.1,1,1,0,0,0-.49.11.87.87,0,0,0-.27.27,1.38,1.38,0,0,0-.13.28V193Z"/><path class="cls-1" d="M224.5,193.07a1.92,1.92,0,0,1-.73-.12,1,1,0,0,1-.45-.32,1.21,1.21,0,0,1-.22-.53,3.88,3.88,0,0,1-.06-.72v-3a2.25,2.25,0,0,1,.07-.6,1.13,1.13,0,0,1,.22-.47,1,1,0,0,1,.42-.31,1.8,1.8,0,0,1,.67-.11,1.7,1.7,0,0,1,.75.14,1,1,0,0,1,.39.35v-2h.74V193h-.51l-.08-.56a.91.91,0,0,1-.21.3.93.93,0,0,1-.37.25A1.52,1.52,0,0,1,224.5,193.07Zm.14-.46a1,1,0,0,0,.53-.12.71.71,0,0,0,.27-.33,1.34,1.34,0,0,0,.1-.45c0-.17,0-.33,0-.49V188a1.47,1.47,0,0,0-.13-.24.78.78,0,0,0-.27-.23,1.1,1.1,0,0,0-.49-.09,1.23,1.23,0,0,0-.53.09.57.57,0,0,0-.25.26.75.75,0,0,0-.09.37c0,.13,0,.27,0,.42v2.92a4.74,4.74,0,0,0,0,.55.67.67,0,0,0,.22.43A.86.86,0,0,0,224.64,192.61Z"/><path class="cls-1" d="M229.71,193.07a1.55,1.55,0,0,1-.93-.23,1,1,0,0,1-.38-.58,3.11,3.11,0,0,1-.08-.76V187h.74v4.36a4.41,4.41,0,0,0,0,.52.62.62,0,0,0,.22.42,1.31,1.31,0,0,0,1.13.06.84.84,0,0,0,.27-.26.62.62,0,0,0,.12-.27V187h.75V193h-.64l-.06-.65a1.06,1.06,0,0,1-.39.52A1.25,1.25,0,0,1,229.71,193.07Z"/><path class="cls-1" d="M235.13,193.07a2.54,2.54,0,0,1-.92-.14,1.12,1.12,0,0,1-.49-.37,1.4,1.4,0,0,1-.2-.54,4.23,4.23,0,0,1-.05-.63v-.45h.76v.56a5.17,5.17,0,0,0,0,.57.56.56,0,0,0,.22.4,1,1,0,0,0,.63.15,1,1,0,0,0,.6-.15.57.57,0,0,0,.22-.37,2.37,2.37,0,0,0,0-.42v-.34a1.21,1.21,0,0,0-.11-.52,1,1,0,0,0-.34-.37,3.13,3.13,0,0,0-.61-.31,4.44,4.44,0,0,1-.69-.33,1.44,1.44,0,0,1-.48-.47,1.39,1.39,0,0,1-.17-.72v-.36a1.31,1.31,0,0,1,.36-1,1.76,1.76,0,0,1,1.25-.36,2.27,2.27,0,0,1,.91.15,1,1,0,0,1,.51.51,2.28,2.28,0,0,1,.16.91v.5H236v-.59a1.21,1.21,0,0,0-.21-.82.81.81,0,0,0-.64-.22.79.79,0,0,0-.68.24,1,1,0,0,0-.18.6v.32a1,1,0,0,0,.15.57,1.29,1.29,0,0,0,.43.36,7.06,7.06,0,0,0,.66.31,4,4,0,0,1,.62.31,1.18,1.18,0,0,1,.42.44,1.52,1.52,0,0,1,.16.77v.28a2.15,2.15,0,0,1-.12.73,1.06,1.06,0,0,1-.47.56A2,2,0,0,1,235.13,193.07Z"/><path class="cls-1" d="M240,193a1.75,1.75,0,0,1-.48-.06.83.83,0,0,1-.37-.2.79.79,0,0,1-.24-.35,1.53,1.53,0,0,1-.09-.56V187.5h-.52v-.38l.57-.08.13-1.12h.57V187h1.28v.46h-1.28v4.18a1.19,1.19,0,0,0,.12.56c.08.15.25.23.53.23l.35,0,.28,0v.48a2.05,2.05,0,0,0-.34,0A4.12,4.12,0,0,1,240,193Z"/><path class="cls-1" d="M242.43,193V187h.62l.08.63a.9.9,0,0,1,.44-.48,2.29,2.29,0,0,1,.6-.18,1.54,1.54,0,0,1,.64,0v.58a.4.4,0,0,0-.16,0h-.26a1.1,1.1,0,0,0-.26.06,1.08,1.08,0,0,0-.68.29.87.87,0,0,0-.28.68V193Z"/><path class="cls-1" d="M246.49,194.37a3,3,0,0,1-.45,0l-.3-.06v-.45a.29.29,0,0,0,.16,0,1.23,1.23,0,0,0,.29,0,1.49,1.49,0,0,0,.4-.06.64.64,0,0,0,.37-.34l.16-.28a.46.46,0,0,0,0-.35L245.8,187h.76l1.09,5.18h0L248.7,187h.7l-1.29,5.7a2.61,2.61,0,0,1-.56,1.23A1.39,1.39,0,0,1,246.49,194.37Z"/><path d="M39.16,141.77V104.48H51.78a8.26,8.26,0,0,1,5.42,1.58,5.74,5.74,0,0,1,1.9,4.67v6.62a15.75,15.75,0,0,1-.6,4.45,6.26,6.26,0,0,1-2.28,3.32,7.89,7.89,0,0,1-4.82,1.26H45.47v15.39ZM45.47,123h3.84a3.13,3.13,0,0,0,2.84-1.48,9.23,9.23,0,0,0,1-4.83v-3.35a8.05,8.05,0,0,0-.82-4.22A2.58,2.58,0,0,0,50,107.82H45.47Z"/><path d="M69.51,142.28a10.22,10.22,0,0,1-3-.44,4.58,4.58,0,0,1-2.4-1.86,7.86,7.86,0,0,1-1-4.39v-3.72a6.84,6.84,0,0,1,1.8-5,15.59,15.59,0,0,1,5.4-3.31A32.26,32.26,0,0,0,73.64,122a4.74,4.74,0,0,0,1.8-1.64,5,5,0,0,0,.57-2.59v-1.57a3,3,0,0,0-.48-1.83,2.66,2.66,0,0,0-1.2-.92,4.53,4.53,0,0,0-1.67-.28,2.8,2.8,0,0,0-2.74,1.26,9.18,9.18,0,0,0-.67,4v2.65H63.89v-3.22a12.49,12.49,0,0,1,.63-4.13A5.13,5.13,0,0,1,67.05,111a11.86,11.86,0,0,1,5.61-1,17.41,17.41,0,0,1,5.84.75A4.78,4.78,0,0,1,81.24,113a8.87,8.87,0,0,1,.76,3.94v24.86H76.07v-3.59a5.3,5.3,0,0,1-2.49,3A8.06,8.06,0,0,1,69.51,142.28Zm2.46-4A3.27,3.27,0,0,0,75,136.76a8.52,8.52,0,0,0,.91-4.32v-8.78a4,4,0,0,1-1.57,1.39c-.76.42-1.5.86-2.21,1.33a8.7,8.7,0,0,0-2.4,2,4.5,4.5,0,0,0-.82,2.87v3a6.67,6.67,0,0,0,.41,2.62,2.11,2.11,0,0,0,1.14,1.2A4,4,0,0,0,72,138.3Z"/><path d="M87.62,141.77V110.54h5l.57,3.59a5.27,5.27,0,0,1,2.34-3,6.92,6.92,0,0,1,3.72-1,8.14,8.14,0,0,1,4.64,1.07,5.07,5.07,0,0,1,2,2.93,16.61,16.61,0,0,1,.5,4.26v23.41h-5.93v-23c0-.58,0-1.15-.06-1.7a3.82,3.82,0,0,0-.38-1.45,2.34,2.34,0,0,0-1-1,4.34,4.34,0,0,0-2-.38,3.66,3.66,0,0,0-1.8.41,3.37,3.37,0,0,0-1.1,1,4.91,4.91,0,0,0-.57,1v25.11Z"/><path d="M110,141.77l7.26-37.29h8.45l7.13,37.29h-6.69l-1.51-7.57h-6.82l-1.38,7.57Zm8-10.66h6.63l-3.28-20.76Z"/><path d="M137.66,141.77V115.21h-2v-3.47h2v-3.28a8.93,8.93,0,0,1,.54-3.35,4.78,4.78,0,0,1,1.41-2,5.39,5.39,0,0,1,2.06-1,10.11,10.11,0,0,1,2.43-.28c.75,0,1.53,0,2.33.06s1.52.1,2.18.16,1.1.1,1.35.1v3c-1.64-.17-2.94-.25-3.91-.25a1.91,1.91,0,0,0-2,1.2,6.23,6.23,0,0,0-.51,2.46v3.22H150v3.47h-6.37v26.56Z"/><path d="M153.62,141.77V110.54h5l.51,3.59a4.64,4.64,0,0,1,1.95-2.36,9.57,9.57,0,0,1,2.72-1.11,7.16,7.16,0,0,1,4-.25V115a5.14,5.14,0,0,0-.94-.16,8,8,0,0,0-1.71,0,3.93,3.93,0,0,0-1.64.44,5,5,0,0,0-2.9,1.8,5.34,5.34,0,0,0-1.08,3.44v21.32Z"/><path d="M174.32,107a3.08,3.08,0,0,1-2.21-.91,3.16,3.16,0,0,1-1-2.18,3,3,0,0,1,1-2.24,3.29,3.29,0,0,1,4.54,0,3,3,0,0,1,.95,2.24,2.68,2.68,0,0,1-.92,2.18A3.25,3.25,0,0,1,174.32,107Zm-3,34.77V110.54h5.94v31.23Z"/><path d="M192.31,142.28a17.15,17.15,0,0,1-5.34-.7,5.22,5.22,0,0,1-3.15-2.77,14.22,14.22,0,0,1-1-6.18V118.24c0-3.16.75-5.32,2.27-6.5s3.87-1.77,7.07-1.77,5.55.57,7.06,1.7,2.28,3.2,2.28,6.19v4.35h-5.94v-4.6a5.49,5.49,0,0,0-.69-3.16,3.2,3.2,0,0,0-2.71-1,3.23,3.23,0,0,0-2.69,1,5.31,5.31,0,0,0-.72,3.16v16.85a5.6,5.6,0,0,0,.72,3.28,3.4,3.4,0,0,0,2.81.94,3.08,3.08,0,0,0,2.59-.91,5.77,5.77,0,0,0,.69-3.31v-4.93h5.94v3.1a14.24,14.24,0,0,1-1.05,6.15,5.21,5.21,0,0,1-3.09,2.8A15.56,15.56,0,0,1,192.31,142.28Z"/><path d="M212.18,142.28a10.22,10.22,0,0,1-3-.44,4.6,4.6,0,0,1-2.39-1.86,7.77,7.77,0,0,1-1-4.39v-3.72a6.84,6.84,0,0,1,1.8-5A15.54,15.54,0,0,1,213,123.6a32.26,32.26,0,0,0,3.31-1.58,4.67,4.67,0,0,0,1.8-1.64,5,5,0,0,0,.57-2.59v-1.57a3,3,0,0,0-.47-1.83,2.78,2.78,0,0,0-1.2-.92,4.57,4.57,0,0,0-1.67-.28,2.81,2.81,0,0,0-2.75,1.26,9.2,9.2,0,0,0-.66,4v2.65h-5.36v-3.22a12.49,12.49,0,0,1,.63-4.13,5.15,5.15,0,0,1,2.52-2.84,11.87,11.87,0,0,1,5.62-1,17.35,17.35,0,0,1,5.83.75,4.8,4.8,0,0,1,2.75,2.31,9,9,0,0,1,.76,3.94v24.86h-5.94v-3.59a5.3,5.3,0,0,1-2.49,3A8.06,8.06,0,0,1,212.18,142.28Zm2.46-4a3.27,3.27,0,0,0,3.06-1.54,8.51,8.51,0,0,0,.92-4.32v-8.78a4,4,0,0,1-1.58,1.39c-.76.42-1.49.86-2.21,1.33a8.7,8.7,0,0,0-2.4,2,4.56,4.56,0,0,0-.82,2.87v3a6.67,6.67,0,0,0,.41,2.62,2.17,2.17,0,0,0,1.14,1.2A4,4,0,0,0,214.64,138.3Z"/><path d="M230.29,141.77V110.54h5l.57,3.59a5.26,5.26,0,0,1,2.33-3,7,7,0,0,1,3.72-1,8.14,8.14,0,0,1,4.64,1.07,5,5,0,0,1,2.05,2.93,16.15,16.15,0,0,1,.51,4.26v23.41h-5.93v-23c0-.58,0-1.15-.07-1.7a3.82,3.82,0,0,0-.38-1.45,2.29,2.29,0,0,0-1-1,4.31,4.31,0,0,0-2-.38,3.62,3.62,0,0,0-1.79.41,3.31,3.31,0,0,0-1.11,1,4.91,4.91,0,0,0-.57,1v25.11Z"/><text class="cls-2" transform="translate(36.71 173.03)">SPACE INDUSTRY</text></svg>