<svg id="Layer_1" data-name="Layer 1" xmlns="http://www.w3.org/2000/svg" viewBox="0 0 288 288"><defs><style>.cls-1,.cls-2{fill:#fff;}.cls-2{font-size:25.24px;font-family:Poppins-SemiBold, Poppins;font-weight:600;letter-spacing:0.01em;}</style></defs><title>white-wordMark-wt-</title><path class="cls-1" d="M39.16,146v-37.3H51.78a8.26,8.26,0,0,1,5.42,1.58,5.74,5.74,0,0,1,1.9,4.67v6.63a15.68,15.68,0,0,1-.6,4.44,6.22,6.22,0,0,1-2.28,3.32,7.89,7.89,0,0,1-4.82,1.26H45.46V146Zm6.3-18.81h3.85a3.13,3.13,0,0,0,2.84-1.48,9.23,9.23,0,0,0,1-4.83v-3.34a8.07,8.07,0,0,0-.82-4.23A2.57,2.57,0,0,0,50,112H45.46Z"/><path class="cls-1" d="M69.51,146.49a10.22,10.22,0,0,1-3-.44,4.53,4.53,0,0,1-2.4-1.86,7.86,7.86,0,0,1-1-4.39v-3.72a6.82,6.82,0,0,1,1.8-5,15.6,15.6,0,0,1,5.4-3.32,34.82,34.82,0,0,0,3.31-1.57,4.76,4.76,0,0,0,1.8-1.65A5,5,0,0,0,76,122v-1.58a3,3,0,0,0-.48-1.83,2.66,2.66,0,0,0-1.2-.92,4.75,4.75,0,0,0-1.67-.28,2.8,2.8,0,0,0-2.74,1.26,9.18,9.18,0,0,0-.67,4v2.65H63.89v-3.22a12.49,12.49,0,0,1,.63-4.13,5.16,5.16,0,0,1,2.53-2.84,12,12,0,0,1,5.61-1,17.11,17.11,0,0,1,5.84.76,4.73,4.73,0,0,1,2.74,2.3,8.9,8.9,0,0,1,.76,3.94V146H76.07v-3.6a5.3,5.3,0,0,1-2.49,3A8.06,8.06,0,0,1,69.51,146.49Zm2.46-4A3.27,3.27,0,0,0,75,141a8.52,8.52,0,0,0,.91-4.32v-8.77a4,4,0,0,1-1.57,1.38c-.76.43-1.5.87-2.21,1.33a8.7,8.7,0,0,0-2.4,2,4.5,4.5,0,0,0-.82,2.87v3a6.67,6.67,0,0,0,.41,2.62,2.11,2.11,0,0,0,1.14,1.2A4,4,0,0,0,72,142.52Z"/><path class="cls-1" d="M87.62,146V114.75h5l.57,3.6a5.26,5.26,0,0,1,2.34-3,7,7,0,0,1,3.72-1,8.22,8.22,0,0,1,4.64,1.07,5.12,5.12,0,0,1,2,2.94,16.61,16.61,0,0,1,.5,4.26V146h-5.93V123q0-.88-.06-1.71a3.87,3.87,0,0,0-.38-1.45,2.34,2.34,0,0,0-1-1,4.34,4.34,0,0,0-2-.38,3.66,3.66,0,0,0-1.8.41,3.37,3.37,0,0,0-1.1,1,5.17,5.17,0,0,0-.57,1V146Z"/><path class="cls-1" d="M110,146l7.26-37.3h8.45l7.13,37.3h-6.69l-1.51-7.58h-6.82L116.46,146Zm8-10.67h6.63l-3.28-20.76Z"/><path class="cls-1" d="M137.66,146V119.42h-2V116h2v-3.28a9,9,0,0,1,.54-3.35,4.84,4.84,0,0,1,1.41-2,5.37,5.37,0,0,1,2.06-1,10.09,10.09,0,0,1,2.42-.29c.76,0,1.54,0,2.34.07s1.52.09,2.18.15,1.1.1,1.35.1v3c-1.64-.16-2.94-.25-3.91-.25a1.93,1.93,0,0,0-2,1.2,6.4,6.4,0,0,0-.5,2.46V116H150v3.47h-6.37V146Z"/><path class="cls-1" d="M153.62,146V114.75h5l.51,3.6a4.71,4.71,0,0,1,1.95-2.37,9.54,9.54,0,0,1,2.72-1.1,7.07,7.07,0,0,1,4-.26v4.55a6.28,6.28,0,0,0-.94-.16,9.54,9.54,0,0,0-1.71,0,3.93,3.93,0,0,0-1.64.44,5,5,0,0,0-2.9,1.8,5.34,5.34,0,0,0-1.08,3.44V146Z"/><path class="cls-1" d="M174.32,111.22a3.09,3.09,0,0,1-2.21-.92,3.14,3.14,0,0,1-1-2.17,3,3,0,0,1,1-2.25,3.29,3.29,0,0,1,4.54,0,3,3,0,0,1,.95,2.25,2.66,2.66,0,0,1-.92,2.17A3.26,3.26,0,0,1,174.32,111.22Zm-3,34.77V114.75h5.94V146Z"/><path class="cls-1" d="M192.3,146.49a17.46,17.46,0,0,1-5.33-.69,5.26,5.26,0,0,1-3.15-2.78,14.22,14.22,0,0,1-1-6.18V122.45c0-3.16.75-5.32,2.27-6.5s3.87-1.77,7.07-1.77,5.55.57,7.06,1.71,2.28,3.19,2.28,6.18v4.35h-5.94v-4.6a5.52,5.52,0,0,0-.69-3.16,3.2,3.2,0,0,0-2.71-.94,3.23,3.23,0,0,0-2.69.94,5.33,5.33,0,0,0-.72,3.16v16.85a5.6,5.6,0,0,0,.72,3.28,3.4,3.4,0,0,0,2.81.94,3.08,3.08,0,0,0,2.59-.91,5.75,5.75,0,0,0,.69-3.31v-4.93h5.94v3.1a14.24,14.24,0,0,1-1.05,6.15,5.26,5.26,0,0,1-3.09,2.81A15.89,15.89,0,0,1,192.3,146.49Z"/><path class="cls-1" d="M212.18,146.49a10.22,10.22,0,0,1-3-.44,4.55,4.55,0,0,1-2.39-1.86,7.77,7.77,0,0,1-1-4.39v-3.72a6.82,6.82,0,0,1,1.8-5,15.54,15.54,0,0,1,5.39-3.32,34.82,34.82,0,0,0,3.31-1.57,4.76,4.76,0,0,0,1.8-1.65,5,5,0,0,0,.57-2.58v-1.58a3,3,0,0,0-.47-1.83,2.78,2.78,0,0,0-1.2-.92,4.79,4.79,0,0,0-1.67-.28,2.81,2.81,0,0,0-2.75,1.26,9.2,9.2,0,0,0-.66,4v2.65h-5.36v-3.22a12.49,12.49,0,0,1,.63-4.13,5.18,5.18,0,0,1,2.52-2.84,12,12,0,0,1,5.62-1,17,17,0,0,1,5.83.76,4.75,4.75,0,0,1,2.75,2.3,9,9,0,0,1,.76,3.94V146h-5.94v-3.6a5.3,5.3,0,0,1-2.49,3A8.06,8.06,0,0,1,212.18,146.49Zm2.46-4A3.27,3.27,0,0,0,217.7,141a8.51,8.51,0,0,0,.92-4.32v-8.77a4.07,4.07,0,0,1-1.58,1.38c-.76.43-1.49.87-2.21,1.33a8.7,8.7,0,0,0-2.4,2,4.56,4.56,0,0,0-.82,2.87v3A6.67,6.67,0,0,0,212,141a2.17,2.17,0,0,0,1.14,1.2A4,4,0,0,0,214.64,142.52Z"/><path class="cls-1" d="M230.29,146V114.75h5l.57,3.6a5.25,5.25,0,0,1,2.33-3,7.06,7.06,0,0,1,3.72-1,8.22,8.22,0,0,1,4.64,1.07,5.12,5.12,0,0,1,2.05,2.94,16.15,16.15,0,0,1,.51,4.26V146h-5.93V123c0-.59,0-1.16-.07-1.71a3.87,3.87,0,0,0-.38-1.45,2.29,2.29,0,0,0-1-1,4.31,4.31,0,0,0-2-.38,3.62,3.62,0,0,0-1.79.41,3.31,3.31,0,0,0-1.11,1,5.17,5.17,0,0,0-.57,1V146Z"/><text class="cls-2" transform="translate(36.71 177.24)">SPACE INDUSTRY</text></svg>