<svg id="Layer_1" data-name="Layer 1" xmlns="http://www.w3.org/2000/svg" viewBox="0 0 288 288"><defs><style>.cls-1{fill:#3853a4;}.cls-2{fill:#b7c5e5;}.cls-3{fill:#fff;}.cls-4{font-size:25.24px;font-family:Poppins-SemiBold, Poppins;font-weight:600;letter-spacing:0.01em;}</style></defs><title>full-logo-tall-</title><circle class="cls-1" cx="144" cy="98.77" r="59.77"/><path class="cls-2" d="M136.5,106.87a.87.87,0,0,1-.85-.69.86.86,0,0,1,.66-1,7.47,7.47,0,0,0-1.6-14.76,7.4,7.4,0,0,0-5.31,2.21.87.87,0,0,1-1.24,0,.88.88,0,0,1,0-1.24,9.22,9.22,0,1,1,8.54,15.49Z"/><path class="cls-2" d="M136.7,111.42a.88.88,0,0,1-.14-1.74,12,12,0,1,0-12.49-17.34.88.88,0,0,1-1.56-.81,13.73,13.73,0,1,1,14.32,19.88Z"/><path class="cls-2" d="M136.78,115.85a.87.87,0,0,1-.1-1.74,16.38,16.38,0,1,0-17.46-21.59.88.88,0,0,1-1.66-.57,18.13,18.13,0,1,1,19.32,23.9Z"/><path class="cls-2" d="M136.87,120.42a.88.88,0,0,1-.08-1.75,20.93,20.93,0,1,0-22.38-25.94.88.88,0,1,1-1.7-.43A22.68,22.68,0,1,1,137,120.41Z"/><path class="cls-2" d="M134.71,70.76a26.94,26.94,0,0,0-24.32,15.15.87.87,0,1,0,1.57.77A25.34,25.34,0,0,1,160,97.84,25.49,25.49,0,0,1,137.86,123a.85.85,0,0,0-.72,1l0,.07a.84.84,0,0,0,.9.62,27.08,27.08,0,0,0-3.35-54Z"/><path class="cls-2" d="M160,115.26a.89.89,0,0,0-1.23.19,29.78,29.78,0,0,1-19.64,11.87.86.86,0,0,0-.71,1.11v0a.87.87,0,0,0,1,.61,31.56,31.56,0,0,0,20.82-12.57A.89.89,0,0,0,160,115.26Z"/><path class="cls-2" d="M165.05,103.32h-.13a.86.86,0,0,1-.73-1,30.39,30.39,0,0,0,.33-4.48A29.55,29.55,0,0,0,163.17,89a.89.89,0,0,1,.58-1.1.87.87,0,0,1,1.09.58,31.42,31.42,0,0,1,1.43,9.4,32.56,32.56,0,0,1-.35,4.74A.88.88,0,0,1,165.05,103.32Z"/><path class="cls-2" d="M109.6,81.08a.87.87,0,0,1-.72-1.38,31.53,31.53,0,0,1,29.61-13.19.88.88,0,0,1-.21,1.74,30.4,30.4,0,0,0-3.57-.21,29.87,29.87,0,0,0-24.4,12.67A.87.87,0,0,1,109.6,81.08Z"/><path class="cls-2" d="M144.14,132.63a.88.88,0,0,1-.23-1.72,33.91,33.91,0,0,0,11-5.35.87.87,0,1,1,1,1.41,35.7,35.7,0,0,1-11.6,5.63A.85.85,0,0,1,144.14,132.63Z"/><path class="cls-2" d="M169.66,94.63a.88.88,0,0,1-.87-.77,33.76,33.76,0,0,0-1.14-5.64.88.88,0,0,1,.6-1.08.87.87,0,0,1,1.08.59,35,35,0,0,1,1.2,5.93.88.88,0,0,1-.77,1Z"/><path class="cls-2" d="M108.17,75.62a.88.88,0,0,1-.66-1.45A36,36,0,0,1,130.7,62a.88.88,0,0,1,1,.78.86.86,0,0,1-.77,1,34.2,34.2,0,0,0-22.06,11.58A.87.87,0,0,1,108.17,75.62Z"/><path class="cls-2" d="M131.4,129.13a.8.8,0,0,0-1.21-.5c-7.41,4.59-13.1,6.29-15,4.42-2.69-2.69,1.69-13.64,14.77-29a.82.82,0,0,0-.09-1.14l-.07,0a.82.82,0,0,0-1.17,0c-10.88,12.81-19.22,26.86-14.68,31.39a4.84,4.84,0,0,0,3.54,1.24c4,0,9.61-2.95,13.57-5.39a.79.79,0,0,0,.35-.88Z"/><path class="cls-2" d="M178.2,69.88c1.57,1.57,1,6.6-5,16a.83.83,0,0,0-.09.75v0a.86.86,0,0,0,1.54.18c3.73-5.84,8.35-14.7,4.81-18.24-3.17-3.16-10.57.21-16.2,3.6-2.24,1.34-4.6,2.92-7,4.7a.87.87,0,0,0-.15,1.27v0a.88.88,0,0,0,1.18.14C167.79,70.68,175.88,67.57,178.2,69.88Z"/><path class="cls-2" d="M139.67,97.93a5,5,0,0,1-7.89,4,5,5,0,0,1-2-4,5,5,0,0,1,5-5,4.84,4.84,0,0,1,3.15,1.13l0,0a3.77,3.77,0,0,1,.57.56A4.9,4.9,0,0,1,139.67,97.93Z"/><path class="cls-2" d="M173.36,112.13a9.61,9.61,0,0,1-5,5,7.59,7.59,0,0,1,5,5,8.11,8.11,0,0,1,5-5C176,116,174.16,114.47,173.36,112.13Z"/><path class="cls-2" d="M136.5,106.87a.87.87,0,0,1-.85-.69.86.86,0,0,1,.66-1,7.47,7.47,0,0,0-1.6-14.76,7.4,7.4,0,0,0-5.31,2.21.87.87,0,0,1-1.24,0,.88.88,0,0,1,0-1.24,9.22,9.22,0,1,1,8.54,15.49Z"/><path class="cls-2" d="M136.7,111.42a.88.88,0,0,1-.14-1.74,12,12,0,1,0-12.49-17.34.88.88,0,0,1-1.56-.81,13.73,13.73,0,1,1,14.32,19.88Z"/><path class="cls-2" d="M136.78,115.85a.87.87,0,0,1-.1-1.74,16.38,16.38,0,1,0-17.46-21.59.88.88,0,0,1-1.66-.57,18.13,18.13,0,1,1,19.32,23.9Z"/><path class="cls-2" d="M136.87,120.42a.88.88,0,0,1-.08-1.75,20.93,20.93,0,1,0-22.38-25.94.88.88,0,1,1-1.7-.43A22.68,22.68,0,1,1,137,120.41Z"/><path class="cls-2" d="M134.71,70.76a26.94,26.94,0,0,0-24.32,15.15.87.87,0,1,0,1.57.77A25.34,25.34,0,0,1,160,97.84,25.49,25.49,0,0,1,137.86,123a.85.85,0,0,0-.72,1l0,.07a.84.84,0,0,0,.9.62,27.08,27.08,0,0,0-3.35-54Z"/><path class="cls-2" d="M160,115.26a.89.89,0,0,0-1.23.19,29.78,29.78,0,0,1-19.64,11.87.86.86,0,0,0-.71,1.11v0a.87.87,0,0,0,1,.61,31.56,31.56,0,0,0,20.82-12.57A.89.89,0,0,0,160,115.26Z"/><path class="cls-2" d="M165.05,103.32h-.13a.86.86,0,0,1-.73-1,30.39,30.39,0,0,0,.33-4.48A29.55,29.55,0,0,0,163.17,89a.89.89,0,0,1,.58-1.1.87.87,0,0,1,1.09.58,31.42,31.42,0,0,1,1.43,9.4,32.56,32.56,0,0,1-.35,4.74A.88.88,0,0,1,165.05,103.32Z"/><path class="cls-2" d="M109.6,81.08a.87.87,0,0,1-.72-1.38,31.53,31.53,0,0,1,29.61-13.19.88.88,0,0,1-.21,1.74,30.4,30.4,0,0,0-3.57-.21,29.87,29.87,0,0,0-24.4,12.67A.87.87,0,0,1,109.6,81.08Z"/><path class="cls-2" d="M144.14,132.63a.88.88,0,0,1-.23-1.72,33.91,33.91,0,0,0,11-5.35.87.87,0,1,1,1,1.41,35.7,35.7,0,0,1-11.6,5.63A.85.85,0,0,1,144.14,132.63Z"/><path class="cls-2" d="M169.66,94.63a.88.88,0,0,1-.87-.77,33.76,33.76,0,0,0-1.14-5.64.88.88,0,0,1,.6-1.08.87.87,0,0,1,1.08.59,35,35,0,0,1,1.2,5.93.88.88,0,0,1-.77,1Z"/><path class="cls-2" d="M108.17,75.62a.88.88,0,0,1-.66-1.45A36,36,0,0,1,130.7,62a.88.88,0,0,1,1,.78.86.86,0,0,1-.77,1,34.2,34.2,0,0,0-22.06,11.58A.87.87,0,0,1,108.17,75.62Z"/><path class="cls-3" d="M131.4,129.13a.8.8,0,0,0-1.21-.5c-7.41,4.59-13.1,6.29-15,4.42-2.69-2.69,1.69-13.64,14.77-29a.82.82,0,0,0-.09-1.14l-.07,0a.82.82,0,0,0-1.17,0c-10.88,12.81-19.22,26.86-14.68,31.39a4.84,4.84,0,0,0,3.54,1.24c4,0,9.61-2.95,13.57-5.39a.79.79,0,0,0,.35-.88Z"/><path class="cls-3" d="M178.2,69.88c1.57,1.57,1,6.6-5,16a.83.83,0,0,0-.09.75v0a.86.86,0,0,0,1.54.18c3.73-5.84,8.35-14.7,4.81-18.24-3.17-3.16-10.57.21-16.2,3.6-2.24,1.34-4.6,2.92-7,4.7a.87.87,0,0,0-.15,1.27v0a.88.88,0,0,0,1.18.14C167.79,70.68,175.88,67.57,178.2,69.88Z"/><path class="cls-3" d="M139.67,97.93a5,5,0,0,1-7.89,4,5,5,0,0,1-2-4,5,5,0,0,1,5-5,4.84,4.84,0,0,1,3.15,1.13l0,0a3.77,3.77,0,0,1,.57.56A4.9,4.9,0,0,1,139.67,97.93Z"/><path class="cls-3" d="M173.36,112.13a9.61,9.61,0,0,1-5,5,7.59,7.59,0,0,1,5,5,8.11,8.11,0,0,1,5-5C176,116,174.16,114.47,173.36,112.13Z"/><path d="M39.15,215.65v-37.3H51.78a8.26,8.26,0,0,1,5.42,1.58,5.74,5.74,0,0,1,1.89,4.67v6.63a16.18,16.18,0,0,1-.59,4.45A6.23,6.23,0,0,1,56.22,199a7.89,7.89,0,0,1-4.82,1.26H45.46v15.4Zm6.31-18.81h3.85a3.13,3.13,0,0,0,2.84-1.48,9.23,9.23,0,0,0,1-4.83v-3.34a8.07,8.07,0,0,0-.82-4.23A2.57,2.57,0,0,0,50,181.7H45.46Z"/><path d="M69.51,216.15a9.85,9.85,0,0,1-3-.44,4.48,4.48,0,0,1-2.4-1.86,7.86,7.86,0,0,1-1-4.39v-3.72a6.82,6.82,0,0,1,1.8-5,15.6,15.6,0,0,1,5.4-3.32,33.58,33.58,0,0,0,3.31-1.57,4.82,4.82,0,0,0,1.8-1.64,5,5,0,0,0,.57-2.59v-1.58a3,3,0,0,0-.48-1.83,2.64,2.64,0,0,0-1.2-.91,4.53,4.53,0,0,0-1.67-.29,2.8,2.8,0,0,0-2.74,1.26,9.06,9.06,0,0,0-.67,4V195H63.89v-3.22a12.49,12.49,0,0,1,.63-4.13,5.16,5.16,0,0,1,2.53-2.84,12,12,0,0,1,5.61-1,17.11,17.11,0,0,1,5.84.76,4.73,4.73,0,0,1,2.74,2.3,8.91,8.91,0,0,1,.76,3.95v24.86H76.07v-3.6a5.24,5.24,0,0,1-2.49,3A8,8,0,0,1,69.51,216.15Zm2.46-4A3.27,3.27,0,0,0,75,210.63a8.52,8.52,0,0,0,.91-4.32v-8.77a4,4,0,0,1-1.57,1.39c-.76.42-1.5.86-2.21,1.32a8.41,8.41,0,0,0-2.4,2,4.5,4.5,0,0,0-.82,2.87v3a6.52,6.52,0,0,0,.41,2.62,2.08,2.08,0,0,0,1.13,1.19A4.07,4.07,0,0,0,72,212.18Z"/><path d="M87.62,215.65V184.41h5l.57,3.6a5.33,5.33,0,0,1,2.34-3,7,7,0,0,1,3.72-1,8.22,8.22,0,0,1,4.64,1.07,5.12,5.12,0,0,1,2,2.94,16.61,16.61,0,0,1,.5,4.26v23.41h-5.93v-23q0-.88-.06-1.71a3.87,3.87,0,0,0-.38-1.45,2.4,2.4,0,0,0-1-1,4.35,4.35,0,0,0-2-.37,3.55,3.55,0,0,0-1.8.41,3.23,3.23,0,0,0-1.1.94,5.17,5.17,0,0,0-.57,1v25.12Z"/><path d="M110,215.65l7.26-37.3h8.45l7.13,37.3h-6.69l-1.51-7.57h-6.82l-1.38,7.57ZM118,205h6.63l-3.28-20.76Z"/><path d="M137.66,215.65V189.08h-2v-3.47h2v-3.28a9.1,9.1,0,0,1,.53-3.34,4.73,4.73,0,0,1,1.42-2,5.25,5.25,0,0,1,2.06-1,10.09,10.09,0,0,1,2.42-.29c.76,0,1.54,0,2.34.07s1.52.09,2.18.15,1.1.1,1.35.1v3c-1.64-.17-2.94-.26-3.91-.26a1.93,1.93,0,0,0-2,1.2,6.4,6.4,0,0,0-.5,2.46v3.22H150v3.47h-6.37v26.57Z"/><path d="M153.62,215.65V184.41h5l.51,3.6a4.71,4.71,0,0,1,1.95-2.37,9.54,9.54,0,0,1,2.72-1.1,7.07,7.07,0,0,1,4-.25v4.54a6.25,6.25,0,0,0-.95-.16,9.41,9.41,0,0,0-1.7,0,3.93,3.93,0,0,0-1.64.44,5.13,5.13,0,0,0-2.9,1.8,5.36,5.36,0,0,0-1.08,3.44v21.33Z"/><path d="M174.32,180.88a3.09,3.09,0,0,1-2.21-.92,3.14,3.14,0,0,1-1-2.17,3,3,0,0,1,1-2.24,3.26,3.26,0,0,1,4.54,0,3,3,0,0,1,.95,2.24,2.66,2.66,0,0,1-.92,2.17A3.26,3.26,0,0,1,174.32,180.88Zm-3,34.77V184.41h5.93v31.24Z"/><path d="M192.3,216.15a17.46,17.46,0,0,1-5.33-.69,5.23,5.23,0,0,1-3.15-2.78,14.22,14.22,0,0,1-1-6.18V192.11c0-3.15.75-5.32,2.27-6.5s3.87-1.77,7.07-1.77,5.55.57,7.06,1.71,2.28,3.2,2.28,6.18v4.36h-5.94v-4.61a5.54,5.54,0,0,0-.69-3.16,3.2,3.2,0,0,0-2.71-.94,3.23,3.23,0,0,0-2.69.94,5.35,5.35,0,0,0-.72,3.16v16.85a5.58,5.58,0,0,0,.72,3.28,3.4,3.4,0,0,0,2.81.95,3.09,3.09,0,0,0,2.59-.92,5.75,5.75,0,0,0,.69-3.31v-4.92h5.94v3.09a14.24,14.24,0,0,1-1.05,6.15,5.23,5.23,0,0,1-3.09,2.81A15.89,15.89,0,0,1,192.3,216.15Z"/><path d="M212.18,216.15a9.9,9.9,0,0,1-3-.44,4.5,4.5,0,0,1-2.39-1.86,7.77,7.77,0,0,1-1-4.39v-3.72a6.82,6.82,0,0,1,1.8-5,15.54,15.54,0,0,1,5.39-3.32,32.51,32.51,0,0,0,3.31-1.57,4.82,4.82,0,0,0,1.8-1.64,5,5,0,0,0,.57-2.59v-1.58a3,3,0,0,0-.47-1.83,2.75,2.75,0,0,0-1.2-.91,4.57,4.57,0,0,0-1.67-.29,2.81,2.81,0,0,0-2.75,1.26,9.23,9.23,0,0,0-.66,4V195h-5.36v-3.22a12.49,12.49,0,0,1,.63-4.13,5.18,5.18,0,0,1,2.52-2.84,12,12,0,0,1,5.62-1,17,17,0,0,1,5.83.76,4.75,4.75,0,0,1,2.75,2.3,9.05,9.05,0,0,1,.76,3.95v24.86h-5.94v-3.6a5.24,5.24,0,0,1-2.49,3A8,8,0,0,1,212.18,216.15Zm2.46-4a3.27,3.27,0,0,0,3.06-1.55,8.51,8.51,0,0,0,.92-4.32v-8.77a4.08,4.08,0,0,1-1.58,1.39c-.76.42-1.49.86-2.21,1.32a8.7,8.7,0,0,0-2.4,2,4.56,4.56,0,0,0-.82,2.87v3a6.7,6.7,0,0,0,.41,2.62,2.09,2.09,0,0,0,1.14,1.19A4,4,0,0,0,214.64,212.18Z"/><path d="M230.29,215.65V184.41h5l.57,3.6a5.31,5.31,0,0,1,2.33-3,7.06,7.06,0,0,1,3.72-1,8.22,8.22,0,0,1,4.64,1.07,5.08,5.08,0,0,1,2.05,2.94,16.15,16.15,0,0,1,.51,4.26v23.41h-5.93v-23c0-.59,0-1.16-.07-1.71a3.87,3.87,0,0,0-.38-1.45,2.34,2.34,0,0,0-1-1,4.31,4.31,0,0,0-2-.37,3.53,3.53,0,0,0-1.8.41,3.18,3.18,0,0,0-1.11.94,5.17,5.17,0,0,0-.57,1v25.12Z"/><text class="cls-4" transform="translate(36.71 246.91)">SPACE INDUSTRY</text></svg>