<svg width="20" height="20" viewBox="0 0 20 20" fill="none" xmlns="http://www.w3.org/2000/svg">
<g id="Facebook">
<path id="Vector" fill-rule="evenodd" clip-rule="evenodd" d="M10 0C15.5228 0 20 4.47716 20 10C20 15.5228 15.5228 20 10 20C4.47716 20 0 15.5228 0 10C0 4.47716 4.47716 0 10 0Z" fill="#005CE8"/>
<path id="Vector_2" d="M6.50353 12.0932H8.03525H8.13442V12.1923V19.7248C8.73864 19.8401 9.36217 19.9008 10 19.9008C10.4012 19.9008 10.802 19.8767 11.2002 19.8285V12.1919V12.0927H11.2993H13.3877L13.6553 9.5725H11.2993H11.1999L11.2002 9.47307L11.2038 8.11258C11.2038 8.11255 11.2038 8.11252 11.2038 8.11249L11.2038 8.11231L11.303 8.11258L6.50353 12.0932ZM6.50353 12.0932V9.57271H8.03525H8.13442V9.47354V7.84149C8.13442 6.74358 8.3627 5.88899 8.89569 5.30844C9.42713 4.72959 10.2795 4.40393 11.5722 4.40393H13.6511V6.9246L6.50353 12.0932Z" fill="white" stroke="#005CE8" stroke-width="0.198338"/>
</g>
</svg>
