<svg width="20" height="20" viewBox="0 0 20 20" fill="none" xmlns="http://www.w3.org/2000/svg">
<g id="Outline/Brands/Instagram">
<g id="Icon">
<path d="M13.3333 5.83332C13.3333 5.37308 13.7064 4.99999 14.1667 4.99999C14.6269 4.99999 15 5.37308 15 5.83332C15 6.29356 14.6269 6.66665 14.1667 6.66665C13.7064 6.66665 13.3333 6.29356 13.3333 5.83332Z" fill="#005CE8"/>
<path fill-rule="evenodd" clip-rule="evenodd" d="M10 6.04165C7.81388 6.04165 6.04167 7.81386 6.04167 9.99999C6.04167 12.1861 7.81388 13.9583 10 13.9583C12.1861 13.9583 13.9583 12.1861 13.9583 9.99999C13.9583 7.81386 12.1861 6.04165 10 6.04165ZM7.29167 9.99999C7.29167 8.50422 8.50423 7.29165 10 7.29165C11.4958 7.29165 12.7083 8.50422 12.7083 9.99999C12.7083 11.4958 11.4958 12.7083 10 12.7083C8.50423 12.7083 7.29167 11.4958 7.29167 9.99999Z" fill="#005CE8"/>
<path fill-rule="evenodd" clip-rule="evenodd" d="M14.3819 2.36083C11.4931 2.03797 8.50696 2.03797 5.61815 2.36083C3.94143 2.54823 2.58782 3.86907 2.39069 5.55451C2.04524 8.5081 2.04524 11.4919 2.39069 14.4455C2.58782 16.1309 3.94143 17.4517 5.61815 17.6391C8.50696 17.962 11.4931 17.962 14.3819 17.6391C16.0586 17.4517 17.4122 16.1309 17.6093 14.4455C17.9548 11.4919 17.9548 8.5081 17.6093 5.55451C17.4122 3.86907 16.0586 2.54823 14.3819 2.36083ZM5.75699 3.6031C8.55353 3.29054 11.4465 3.29054 14.243 3.6031C15.3515 3.72698 16.2394 4.60166 16.3678 5.69972C16.702 8.55683 16.702 11.4431 16.3678 14.3003C16.2394 15.3983 15.3515 16.273 14.243 16.3969C11.4465 16.7094 8.55353 16.7094 5.75699 16.3969C4.64857 16.273 3.76066 15.3983 3.63223 14.3003C3.29807 11.4431 3.29807 8.55683 3.63223 5.69972C3.76066 4.60166 4.64857 3.72698 5.75699 3.6031Z" fill="#005CE8"/>
</g>
</g>
</svg>
