<svg width="24" height="24" viewBox="0 0 24 24" fill="none" xmlns="http://www.w3.org/2000/svg">
<g id="Phosphor/Duotone/PhoneCall">
<path id="Vector" opacity="0.2" d="M8.66965 11.7015C9.44762 13.292 10.7369 14.5754 12.3309 15.3461C12.4475 15.4013 12.5765 15.4253 12.7052 15.4156C12.8339 15.4058 12.9579 15.3627 13.0648 15.2906L15.4119 13.7255C15.5157 13.6562 15.6352 13.614 15.7594 13.6026C15.8837 13.5912 16.0088 13.6109 16.1235 13.6601L20.5144 15.5419C20.6636 15.6053 20.7881 15.7154 20.8693 15.8557C20.9504 15.996 20.9838 16.1589 20.9643 16.3197C20.8255 17.4058 20.2956 18.4039 19.4739 19.1274C18.6521 19.8509 17.5948 20.25 16.5 20.25C13.1185 20.25 9.87548 18.9067 7.48439 16.5156C5.0933 14.1246 3.75 10.8815 3.75 7.50003C3.75006 6.40519 4.14918 5.34792 4.87264 4.52617C5.5961 3.70441 6.59428 3.17454 7.68028 3.03575C7.84117 3.01628 8.00403 3.04962 8.14432 3.13076C8.28461 3.21189 8.39473 3.33642 8.4581 3.48558L10.3416 7.88038C10.3903 7.99406 10.4101 8.11802 10.3994 8.24122C10.3886 8.36443 10.3475 8.48305 10.2798 8.58653L8.72011 10.9696C8.64912 11.0768 8.60716 11.2006 8.59831 11.3289C8.58947 11.4572 8.61405 11.5855 8.66965 11.7015Z" fill="#005CE8"/>
<path id="Vector_2" d="M8.66965 11.7015C9.44762 13.292 10.7369 14.5754 12.3309 15.3461C12.4475 15.4013 12.5765 15.4253 12.7052 15.4156C12.8339 15.4058 12.9579 15.3627 13.0648 15.2906L15.4119 13.7255C15.5157 13.6562 15.6352 13.614 15.7594 13.6026C15.8837 13.5912 16.0088 13.6109 16.1235 13.6601L20.5144 15.5419C20.6636 15.6053 20.7881 15.7154 20.8693 15.8557C20.9504 15.996 20.9838 16.1589 20.9643 16.3197C20.8255 17.4058 20.2956 18.4039 19.4739 19.1274C18.6521 19.8509 17.5948 20.25 16.5 20.25C13.1185 20.25 9.87548 18.9067 7.48439 16.5156C5.0933 14.1246 3.75 10.8815 3.75 7.50003C3.75006 6.40519 4.14918 5.34792 4.87264 4.52617C5.5961 3.70441 6.59428 3.17454 7.68028 3.03575C7.84117 3.01628 8.00403 3.04962 8.14432 3.13076C8.28461 3.21189 8.39473 3.33642 8.4581 3.48558L10.3416 7.88038C10.3903 7.99406 10.4101 8.11802 10.3994 8.24122C10.3886 8.36443 10.3475 8.48305 10.2798 8.58653L8.72011 10.9696C8.64912 11.0768 8.60716 11.2006 8.59831 11.3289C8.58947 11.4572 8.61405 11.5855 8.66965 11.7015V11.7015Z" stroke="#005CE8" stroke-width="1.25" stroke-linecap="round" stroke-linejoin="round"/>
<path id="Vector_3" d="M14.9454 3.75C16.2168 4.09194 17.3761 4.76196 18.307 5.69294C19.238 6.62392 19.908 7.78319 20.25 9.05462" stroke="#005CE8" stroke-width="1.25" stroke-linecap="round" stroke-linejoin="round"/>
<path id="Vector_4" d="M14.1687 6.64847C14.9316 6.85363 15.6271 7.25564 16.1857 7.81423C16.7443 8.37282 17.1463 9.06838 17.3515 9.83124" stroke="#005CE8" stroke-width="1.25" stroke-linecap="round" stroke-linejoin="round"/>
</g>
</svg>
