<svg width="20" height="20" viewBox="0 0 20 20" fill="none" xmlns="http://www.w3.org/2000/svg">
<g id="Solid/Brands/Twitter">
<path id="Vector" d="M18.1748 5.18937C18.2231 5.12207 18.1517 5.03516 18.0745 5.0651C17.5256 5.27787 16.9519 5.42143 16.3667 5.49218C17.0183 5.10291 17.5211 4.51034 17.7999 3.80879C17.8283 3.73732 17.7502 3.6735 17.6829 3.71068C17.0773 4.04513 16.4242 4.28596 15.7457 4.42465C15.7173 4.43046 15.6881 4.42079 15.6681 4.39975C15.159 3.86252 14.4888 3.50483 13.7582 3.38122C13.0122 3.25502 12.2454 3.37998 11.5781 3.7365C10.9109 4.09303 10.3808 4.66095 10.071 5.35121C9.77652 6.00751 9.69705 6.7391 9.84231 7.44171C9.85358 7.49622 9.8109 7.54769 9.75534 7.54424C8.4353 7.46225 7.14555 7.11114 5.96554 6.51206C4.78853 5.9145 3.74625 5.0832 2.90219 4.06942C2.86473 4.02443 2.79373 4.03025 2.76644 4.08205C2.5038 4.58044 2.36629 5.13593 2.36666 5.70051C2.36559 6.2625 2.50351 6.81602 2.76812 7.31181C3.03274 7.8076 3.41584 8.23027 3.88333 8.54218C3.38756 8.52869 2.90145 8.40612 2.45937 8.18391C2.40239 8.15527 2.33405 8.19604 2.33702 8.25974C2.37149 9.00077 2.64354 9.74471 3.11442 10.3155C3.61552 10.9229 4.31104 11.3385 5.08333 11.4922C4.78604 11.5827 4.47739 11.6304 4.16666 11.6338C3.99754 11.6319 3.82875 11.6194 3.66127 11.5965C3.59917 11.588 3.54847 11.647 3.5702 11.7058C3.80055 12.3287 4.20749 12.8722 4.74255 13.269C5.3146 13.6932 6.00464 13.9285 6.71666 13.9422C5.51433 14.8882 4.0299 15.4046 2.49999 15.4088C2.34279 15.4094 2.18566 15.4043 2.02889 15.3936C1.94055 15.3876 1.89992 15.5053 1.97607 15.5504C3.46671 16.4351 5.17048 16.9026 6.90833 16.9005C8.1914 16.9138 9.46427 16.6714 10.6526 16.1872C11.8409 15.7031 12.9208 14.9871 13.8293 14.0809C14.7378 13.1748 15.4566 12.0967 15.9438 10.9096C16.431 9.72253 16.6767 8.45028 16.6667 7.16718V6.76732C16.6667 6.74101 16.6791 6.71627 16.7001 6.70041C17.2653 6.27363 17.7624 5.7641 18.1748 5.18937Z" fill="#005CE8"/>
</g>
</svg>
