<svg id="Layer_1" data-name="Layer 1" xmlns="http://www.w3.org/2000/svg" viewBox="0 0 288 288"><defs><style>.cls-1,.cls-2,.cls-3{fill:#0c3ed4;}.cls-2{font-size:24.11px;}.cls-2,.cls-3{font-family:Poppins-SemiBold, Poppins;font-weight:600;}.cls-3{font-size:21.7px;}</style></defs><title>prim-stamp-</title><path class="cls-1" d="M135.2,153.52a1,1,0,0,1-1-.81,1,1,0,0,1,.79-1.22,8.78,8.78,0,0,0-1.89-17.35,8.72,8.72,0,0,0-6.24,2.61,1,1,0,0,1-1.45,0,1,1,0,0,1,0-1.46,10.83,10.83,0,1,1,10,18.19Z"/><path class="cls-1" d="M135.42,158.86a1,1,0,0,1-.15-2,14.07,14.07,0,1,0-14.68-20.37,1,1,0,1,1-1.82-.95,16.13,16.13,0,1,1,16.81,23.35Z"/><path class="cls-1" d="M135.52,164.07a1,1,0,0,1-.12-2,19.24,19.24,0,1,0-20.51-25.36,1,1,0,0,1-1.3.64A1,1,0,0,1,113,136a21.3,21.3,0,1,1,22.7,28.07Z"/><path class="cls-1" d="M135.63,169.43a1,1,0,0,1-.1-2.05,24.58,24.58,0,1,0-26.28-30.47,1,1,0,1,1-2-.5,26.64,26.64,0,1,1,28.47,33Z"/><path class="cls-1" d="M133.09,111.11a31.62,31.62,0,0,0-28.56,17.79,1,1,0,0,0,.47,1.37,1,1,0,0,0,1.38-.47,29.75,29.75,0,0,1,56.46,13.12,29.92,29.92,0,0,1-26.05,29.52,1,1,0,0,0-.84,1.23l0,.09a1,1,0,0,0,1.06.72,31.81,31.81,0,0,0-3.94-63.37Z"/><path class="cls-1" d="M162.78,163.38a1,1,0,0,0-1.44.22,35,35,0,0,1-23.06,13.93,1,1,0,0,0-.84,1.31v0a1,1,0,0,0,1.12.71A37,37,0,0,0,163,164.81,1,1,0,0,0,162.78,163.38Z"/><path class="cls-1" d="M168.73,149.35h-.15a1,1,0,0,1-.87-1.17,35.48,35.48,0,0,0,.39-5.25,35,35,0,0,0-1.58-10.44,1,1,0,0,1,.68-1.29,1,1,0,0,1,1.28.68,37.08,37.08,0,0,1,1.26,16.6A1,1,0,0,1,168.73,149.35Z"/><path class="cls-1" d="M103.6,123.23A1,1,0,0,1,103,123a1,1,0,0,1-.25-1.43,37.12,37.12,0,0,1,30.33-15.76,38.62,38.62,0,0,1,4.44.26,1,1,0,0,1,.9,1.15,1,1,0,0,1-1.14.89,36.83,36.83,0,0,0-4.2-.24,35.08,35.08,0,0,0-28.65,14.88A1,1,0,0,1,103.6,123.23Z"/><path class="cls-1" d="M144.17,183.77a1,1,0,0,1-.28-2,40.16,40.16,0,0,0,13-6.28,1,1,0,1,1,1.22,1.66,42,42,0,0,1-13.63,6.6A.84.84,0,0,1,144.17,183.77Z"/><path class="cls-1" d="M174.14,139.14a1,1,0,0,1-1-.91,41.17,41.17,0,0,0-1.33-6.61,1,1,0,1,1,2-.58,42.27,42.27,0,0,1,1.4,7,1,1,0,0,1-.9,1.14Z"/><path class="cls-1" d="M101.92,116.81a1,1,0,0,1-.67-.25,1,1,0,0,1-.1-1.45,42.17,42.17,0,0,1,27.23-14.29,1,1,0,0,1,.23,2.05,40.1,40.1,0,0,0-25.91,13.59A1,1,0,0,1,101.92,116.81Z"/><path class="cls-1" d="M129.21,179.66a1,1,0,0,0-1.42-.59c-8.71,5.4-15.39,7.39-17.6,5.19-3.16-3.15,2-16,17.35-34.06a1,1,0,0,0-.11-1.33l-.08-.06a1,1,0,0,0-1.38.05c-12.77,15-22.57,31.54-17.23,36.86a5.68,5.68,0,0,0,4.15,1.46c4.73,0,11.29-3.46,15.94-6.34a.94.94,0,0,0,.42-1A1.24,1.24,0,0,1,129.21,179.66Z"/><path class="cls-1" d="M184.17,110.08c1.85,1.84,1.18,7.74-5.91,18.83a1,1,0,0,0-.11.89l0,0A1,1,0,0,0,180,130c4.38-6.87,9.81-17.27,5.64-21.42-3.72-3.71-12.4.24-19,4.22-2.64,1.58-5.4,3.43-8.26,5.52a1,1,0,0,0-.17,1.5v0a1,1,0,0,0,1.39.16C171.94,111,181.44,107.35,184.17,110.08Z"/><path class="cls-1" d="M138.91,143a5.81,5.81,0,0,1-10.68,3.22,5.7,5.7,0,0,1-1-3.2,5.82,5.82,0,0,1,5.82-5.84,5.77,5.77,0,0,1,3.71,1.33l0,0a6,6,0,0,1,.67.66A5.76,5.76,0,0,1,138.91,143Z"/><path class="cls-1" d="M178.49,159.7a11.35,11.35,0,0,1-5.83,5.83,8.92,8.92,0,0,1,5.84,5.84,9.54,9.54,0,0,1,5.83-5.84C181.59,164.22,179.42,162.45,178.49,159.7Z"/><path class="cls-1" d="M135.2,153.52a1,1,0,0,1-1-.81,1,1,0,0,1,.79-1.22,8.78,8.78,0,0,0-1.89-17.35,8.72,8.72,0,0,0-6.24,2.61,1,1,0,0,1-1.45,0,1,1,0,0,1,0-1.46,10.83,10.83,0,1,1,10,18.19Z"/><path class="cls-1" d="M135.42,158.86a1,1,0,0,1-.15-2,14.07,14.07,0,1,0-14.68-20.37,1,1,0,1,1-1.82-.95,16.13,16.13,0,1,1,16.81,23.35Z"/><path class="cls-1" d="M135.52,164.07a1,1,0,0,1-.12-2,19.24,19.24,0,1,0-20.51-25.36,1,1,0,0,1-1.3.64A1,1,0,0,1,113,136a21.3,21.3,0,1,1,22.7,28.07Z"/><path class="cls-1" d="M135.63,169.43a1,1,0,0,1-.1-2.05,24.58,24.58,0,1,0-26.28-30.47,1,1,0,1,1-2-.5,26.64,26.64,0,1,1,28.47,33Z"/><path class="cls-1" d="M133.09,111.11a31.62,31.62,0,0,0-28.56,17.79,1,1,0,0,0,.47,1.37,1,1,0,0,0,1.38-.47,29.75,29.75,0,0,1,56.46,13.12,29.92,29.92,0,0,1-26.05,29.52,1,1,0,0,0-.84,1.23l0,.09a1,1,0,0,0,1.06.72,31.81,31.81,0,0,0-3.94-63.37Z"/><path class="cls-1" d="M162.78,163.38a1,1,0,0,0-1.44.22,35,35,0,0,1-23.06,13.93,1,1,0,0,0-.84,1.31v0a1,1,0,0,0,1.12.71A37,37,0,0,0,163,164.81,1,1,0,0,0,162.78,163.38Z"/><path class="cls-1" d="M168.73,149.35h-.15a1,1,0,0,1-.87-1.17,35.48,35.48,0,0,0,.39-5.25,35,35,0,0,0-1.58-10.44,1,1,0,0,1,.68-1.29,1,1,0,0,1,1.28.68,37.08,37.08,0,0,1,1.26,16.6A1,1,0,0,1,168.73,149.35Z"/><path class="cls-1" d="M103.6,123.23A1,1,0,0,1,103,123a1,1,0,0,1-.25-1.43,37.12,37.12,0,0,1,30.33-15.76,38.62,38.62,0,0,1,4.44.26,1,1,0,0,1,.9,1.15,1,1,0,0,1-1.14.89,36.83,36.83,0,0,0-4.2-.24,35.08,35.08,0,0,0-28.65,14.88A1,1,0,0,1,103.6,123.23Z"/><path class="cls-1" d="M144.17,183.77a1,1,0,0,1-.28-2,40.16,40.16,0,0,0,13-6.28,1,1,0,1,1,1.22,1.66,42,42,0,0,1-13.63,6.6A.84.84,0,0,1,144.17,183.77Z"/><path class="cls-1" d="M174.14,139.14a1,1,0,0,1-1-.91,41.17,41.17,0,0,0-1.33-6.61,1,1,0,1,1,2-.58,42.27,42.27,0,0,1,1.4,7,1,1,0,0,1-.9,1.14Z"/><path class="cls-1" d="M101.92,116.81a1,1,0,0,1-.67-.25,1,1,0,0,1-.1-1.45,42.17,42.17,0,0,1,27.23-14.29,1,1,0,0,1,.23,2.05,40.1,40.1,0,0,0-25.91,13.59A1,1,0,0,1,101.92,116.81Z"/><path class="cls-1" d="M129.21,179.66a1,1,0,0,0-1.42-.59c-8.71,5.4-15.39,7.39-17.6,5.19-3.16-3.15,2-16,17.35-34.06a1,1,0,0,0-.11-1.33l-.08-.06a1,1,0,0,0-1.38.05c-12.77,15-22.57,31.54-17.23,36.86a5.68,5.68,0,0,0,4.15,1.46c4.73,0,11.29-3.46,15.94-6.34a.94.94,0,0,0,.42-1A1.24,1.24,0,0,1,129.21,179.66Z"/><path class="cls-1" d="M184.17,110.08c1.85,1.84,1.18,7.74-5.91,18.83a1,1,0,0,0-.11.89l0,0A1,1,0,0,0,180,130c4.38-6.87,9.81-17.27,5.64-21.42-3.72-3.71-12.4.24-19,4.22-2.64,1.58-5.4,3.43-8.26,5.52a1,1,0,0,0-.17,1.5v0a1,1,0,0,0,1.39.16C171.94,111,181.44,107.35,184.17,110.08Z"/><path class="cls-1" d="M138.91,143a5.81,5.81,0,0,1-10.68,3.22,5.7,5.7,0,0,1-1-3.2,5.82,5.82,0,0,1,5.82-5.84,5.77,5.77,0,0,1,3.71,1.33l0,0a6,6,0,0,1,.67.66A5.76,5.76,0,0,1,138.91,143Z"/><path class="cls-1" d="M178.49,159.7a11.35,11.35,0,0,1-5.83,5.83,8.92,8.92,0,0,1,5.84,5.84,9.54,9.54,0,0,1,5.83-5.84C181.59,164.22,179.42,162.45,178.49,159.7Z"/><text class="cls-2" transform="translate(74.43 105.56) rotate(-55.8)">P</text><text class="cls-2" transform="matrix(0.73, -0.68, 0.68, 0.73, 83.56, 92.17)">A</text><text class="cls-2" transform="translate(97.34 79.48) rotate(-29.49)">N</text><text class="cls-2" transform="matrix(0.96, -0.27, 0.27, 0.96, 114.16, 70.2)">A</text><text class="cls-2" transform="translate(132.39 65.43) rotate(-3.86)">F</text><text class="cls-2" transform="matrix(0.99, 0.13, -0.13, 0.99, 146.73, 64.49)">R</text><text class="cls-2" transform="translate(163.72 67.24) rotate(16.79)">I</text><text class="cls-2" transform="matrix(0.89, 0.45, -0.45, 0.89, 171.91, 69.32)">C</text><text class="cls-2" transform="matrix(0.75, 0.66, -0.66, 0.75, 189.56, 78.59)">A</text><text class="cls-2" transform="translate(203.6 91.02) rotate(54.71)">N</text><text class="cls-2" transform="translate(214.28 107.23) rotate(64.37)"> </text><text class="cls-2" transform="translate(217.55 114.27) rotate(69.95)"> </text><text class="cls-2" transform="matrix(0.25, 0.97, -0.97, 0.25, 220.11, 121.58)"> </text><text class="cls-2" transform="translate(221.94 129.08) rotate(81.13)"> </text><text class="cls-2" transform="matrix(0.06, 1, -1, 0.06, 223.04, 136.74)"> </text><text class="cls-2" transform="matrix(-0.04, 1, -1, -0.04, 223.38, 144.49)"> </text><text class="cls-2" transform="matrix(-0.14, 0.99, -0.99, -0.14, 222.96, 152.2)"> </text><text class="cls-2" transform="matrix(-0.24, 0.97, -0.97, -0.24, 221.78, 159.86)"> </text><text class="cls-2" transform="translate(219.87 167.36) rotate(109.12)"> </text><text class="cls-2" transform="translate(217.23 174.66) rotate(114.69)"> </text><text class="cls-2" transform="matrix(-0.5, 0.86, -0.86, -0.5, 213.91, 181.64)"> </text><text class="cls-2" transform="matrix(-0.59, 0.81, -0.81, -0.59, 209.92, 188.27)"> </text><text class="cls-2" transform="translate(205.3 194.49) rotate(131.57)"> </text><text class="cls-2" transform="translate(200.09 200.22) rotate(137.19)"> </text><text class="cls-2" transform="translate(194.35 205.4) rotate(142.78)"> </text><text class="cls-2" transform="translate(188.13 210) rotate(148.35)"> </text><text class="cls-2" transform="translate(181.47 213.99) rotate(153.93)"> </text><text class="cls-3" transform="translate(48.93 150.76) rotate(84.29)"> </text><text class="cls-3" transform="translate(49.68 157.6) rotate(80.16)"> </text><text class="cls-3" transform="matrix(0.23, 0.97, -0.97, 0.23, 50.98, 164.53)"> </text><text class="cls-3" transform="translate(52.64 171.07) rotate(71.98)"> </text><text class="cls-3" transform="translate(54.83 177.61) rotate(67.84)"> </text><text class="cls-3" transform="translate(57.52 184.5) rotate(60.95)">S</text><text class="cls-3" transform="translate(65.41 198.25) rotate(51.37)">P</text><text class="cls-3" transform="translate(75.48 210.61) rotate(41.07)">A</text><text class="cls-3" transform="matrix(0.87, 0.5, -0.5, 0.87, 89.57, 222.58)">C</text><text class="cls-3" transform="translate(106.62 231.77) rotate(19.63)">E</text><text class="cls-3" transform="matrix(0.97, 0.23, -0.23, 0.97, 119.56, 236.08)"> </text><text class="cls-3" transform="matrix(0.99, 0.15, -0.15, 0.99, 126.34, 237.63)">I</text><text class="cls-3" transform="translate(134.66 239.11) rotate(0.77)">N</text><text class="cls-3" transform="matrix(0.98, -0.18, 0.18, 0.98, 153.51, 239.06)">D</text><text class="cls-3" transform="translate(171.53 235.45) rotate(-21.23)">U</text><text class="cls-3" transform="translate(188.06 228.67) rotate(-31.45)">S</text><text class="cls-3" transform="matrix(0.76, -0.65, 0.65, 0.76, 201.41, 220.23)">T</text><text class="cls-3" transform="matrix(0.64, -0.77, 0.77, 0.64, 212.78, 210.19)">R</text><text class="cls-3" transform="translate(223.19 197.28) rotate(-60.2)">Y</text><text class="cls-3" transform="translate(230.79 183.21) rotate(-67.19)"> </text><text class="cls-3" transform="translate(233.42 176.8) rotate(-71.35)"> </text><text class="cls-3" transform="matrix(0.25, -0.97, 0.97, 0.25, 235.57, 170.23)"> </text><text class="cls-3" transform="matrix(0.18, -0.98, 0.98, 0.18, 237.24, 163.5)"> </text><text class="cls-3" transform="translate(238.42 156.68) rotate(-83.88)"> </text><text class="cls-3" transform="translate(239.09 149.81) rotate(-88.07)"> </text><text class="cls-3" transform="matrix(-0.04, -1, 1, -0.04, 239.26, 142.88)"> </text><text class="cls-3" transform="translate(238.92 135.98) rotate(-96.44)"> </text><text class="cls-3" transform="translate(238.08 129.1) rotate(-100.59)"> </text><text class="cls-3" transform="translate(236.76 122.26) rotate(-105.19)"> </text><text class="cls-3" transform="translate(234.96 115.71) rotate(-108.75)"> </text><text class="cls-3" transform="translate(232.67 109.18) rotate(-112.9)"> </text><text class="cls-3" transform="translate(229.93 102.83) rotate(-117.08)"> </text><path class="cls-1" d="M212.24,138.1a1.87,1.87,0,0,1-1.86-1.66,66.81,66.81,0,0,0-132.76,0A1.87,1.87,0,0,1,73.9,136a70.55,70.55,0,0,1,140.2,0,1.87,1.87,0,0,1-1.65,2.07Z"/><path class="cls-1" d="M144,214.54a70.57,70.57,0,0,1-70.29-64.39,1.87,1.87,0,1,1,3.73-.33c3,34.2,32.18,61,66.56,61s63.59-26.78,66.54-61a1.87,1.87,0,1,1,3.73.33A70.55,70.55,0,0,1,144,214.54Z"/><path class="cls-1" d="M137.49,251.81h-.12a108,108,0,0,1,0-215.6,1.87,1.87,0,1,1,.23,3.73,104.27,104.27,0,0,0,0,208.14,1.87,1.87,0,0,1-.11,3.74Z"/><path class="cls-1" d="M154.39,251.5a1.87,1.87,0,0,1-.18-3.74,104.26,104.26,0,0,0,0-207.52,1.87,1.87,0,0,1,.36-3.73,108,108,0,0,1,0,215Z"/><path id="text2175" class="cls-1" d="M236.08,136.35a3.6,3.6,0,0,0-.66,2.18,6.94,6.94,0,0,1-.26,1.88,1.88,1.88,0,0,1-.8,1,3.27,3.27,0,0,1-1.77.39V138a4.37,4.37,0,0,1,.12-1.3.87.87,0,0,1,.48-.46,3.16,3.16,0,0,1,1.15-.18v-.31H229.2v.31a3.12,3.12,0,0,1,1.15.18.9.9,0,0,1,.49.47A4.8,4.8,0,0,1,231,138v3.73a3.22,3.22,0,0,1-1.77-.4,1.85,1.85,0,0,1-.81-1,7.88,7.88,0,0,1-.25-1.87,4.35,4.35,0,0,0-.36-1.71,1.94,1.94,0,0,0-.85-.91,3.41,3.41,0,0,0-1.4-.27V136a.75.75,0,0,1,.68.4,4.07,4.07,0,0,1,.16,1.43,6.85,6.85,0,0,0,.37,2.57,2.85,2.85,0,0,0,1.38,1.43,6.21,6.21,0,0,0,2.85.59v2.71a4.45,4.45,0,0,1-.12,1.32.89.89,0,0,1-.5.47,3.15,3.15,0,0,1-1.13.16v.32h5.14v-.32a2.72,2.72,0,0,1-1.14-.18.87.87,0,0,1-.49-.47,4.33,4.33,0,0,1-.12-1.3v-2.71a6.4,6.4,0,0,0,2.87-.59,2.9,2.9,0,0,0,1.39-1.45,7.36,7.36,0,0,0,.34-2.54,3.76,3.76,0,0,1,.18-1.46A.71.71,0,0,1,238,136v-.33A2.4,2.4,0,0,0,236.08,136.35Z"/><path id="text2175-2" data-name="text2175" class="cls-1" d="M61.4,136.35a3.6,3.6,0,0,0-.66,2.18,6.94,6.94,0,0,1-.26,1.88,1.88,1.88,0,0,1-.8,1,3.27,3.27,0,0,1-1.77.39V138a4.37,4.37,0,0,1,.12-1.3.9.9,0,0,1,.48-.46,3.18,3.18,0,0,1,1.16-.18v-.31H54.52v.31a3.18,3.18,0,0,1,1.16.18.92.92,0,0,1,.48.47,4.41,4.41,0,0,1,.11,1.29v3.73a3.22,3.22,0,0,1-1.77-.4,1.79,1.79,0,0,1-.8-1,7.28,7.28,0,0,1-.26-1.87,4.18,4.18,0,0,0-.36-1.71,1.94,1.94,0,0,0-.85-.91,3.36,3.36,0,0,0-1.39-.27V136a.75.75,0,0,1,.67.4,4.07,4.07,0,0,1,.16,1.43,7.06,7.06,0,0,0,.37,2.57,2.85,2.85,0,0,0,1.38,1.43,6.24,6.24,0,0,0,2.85.59v2.71a4.45,4.45,0,0,1-.12,1.32.86.86,0,0,1-.5.47,3.11,3.11,0,0,1-1.13.16v.32h5.15v-.32a2.78,2.78,0,0,1-1.15-.18.9.9,0,0,1-.49-.47,4.33,4.33,0,0,1-.12-1.3v-2.71a6.4,6.4,0,0,0,2.87-.59,2.86,2.86,0,0,0,1.39-1.45,7.36,7.36,0,0,0,.34-2.54,3.76,3.76,0,0,1,.18-1.46.74.74,0,0,1,.66-.38v-.33A2.42,2.42,0,0,0,61.4,136.35Z"/><path class="cls-1" d="M229.36,119.13a8.44,8.44,0,0,1-4.24,4.44,6.62,6.62,0,0,1,4.24,4.45,7.14,7.14,0,0,1,4.24-4.45A7.71,7.71,0,0,1,229.36,119.13Z"/><path class="cls-1" d="M230.45,154.79a8.42,8.42,0,0,1-4.23,4.44,6.62,6.62,0,0,1,4.24,4.45,7.14,7.14,0,0,1,4.24-4.45A7.72,7.72,0,0,1,230.45,154.79Z"/><path class="cls-1" d="M57.2,154.79A8.44,8.44,0,0,1,53,159.23a6.62,6.62,0,0,1,4.24,4.45,7.14,7.14,0,0,1,4.24-4.45A7.71,7.71,0,0,1,57.2,154.79Z"/><path class="cls-1" d="M58.29,119.13a8.42,8.42,0,0,1-4.23,4.44A6.62,6.62,0,0,1,58.3,128a7.14,7.14,0,0,1,4.24-4.45A7.72,7.72,0,0,1,58.29,119.13Z"/></svg>