<svg id="Layer_1" data-name="Layer 1" xmlns="http://www.w3.org/2000/svg" viewBox="0 0 288 288"><defs><style>.cls-1{fill:#0c3ed4;}.cls-2{fill:#b5c7fb;}.cls-3{fill:#fff;}</style></defs><title>prim-logoMark-s-</title><rect class="cls-1" x="36" y="36" width="216" height="216" rx="14.4"/><path class="cls-2" d="M130.45,158.65a1.58,1.58,0,0,1-.34-3.13,13.5,13.5,0,0,0-2.9-26.68,13.4,13.4,0,0,0-9.6,4,1.58,1.58,0,0,1-2.25-2.23,16.66,16.66,0,0,1,28.51,11.71,16.75,16.75,0,0,1-13.08,16.28A1.37,1.37,0,0,1,130.45,158.65Z"/><path class="cls-2" d="M130.8,166.87a1.58,1.58,0,0,1-1.56-1.34,1.6,1.6,0,0,1,1.32-1.81A21.65,21.65,0,1,0,108,132.38a1.58,1.58,0,1,1-2.8-1.46,24.81,24.81,0,1,1,25.87,35.93Z"/><path class="cls-2" d="M131,174.88a1.59,1.59,0,0,1-.19-3.16,29.6,29.6,0,1,0-31.55-39,1.58,1.58,0,1,1-3-1,32.77,32.77,0,1,1,34.92,43.18Z"/><path class="cls-2" d="M131.12,183.13A1.58,1.58,0,0,1,131,180a37.82,37.82,0,1,0-40.43-46.88,1.58,1.58,0,0,1-3.07-.77,41,41,0,1,1,43.81,50.8Z"/><path class="cls-2" d="M127.21,93.39a48.65,48.65,0,0,0-43.94,27.38,1.58,1.58,0,0,0,2.84,1.39A45.78,45.78,0,0,1,173,142.33a46.06,46.06,0,0,1-40.09,45.43,1.51,1.51,0,0,0-1.29,1.89l0,.14a1.52,1.52,0,0,0,1.63,1.1,48.94,48.94,0,0,0-6.06-97.5Z"/><path class="cls-2" d="M172.89,173.81a1.59,1.59,0,0,0-2.21.34,53.82,53.82,0,0,1-35.49,21.45,1.56,1.56,0,0,0-1.29,2v0a1.56,1.56,0,0,0,1.71,1.1A57,57,0,0,0,173.23,176,1.57,1.57,0,0,0,172.89,173.81Z"/><path class="cls-2" d="M182,152.23h-.23a1.58,1.58,0,0,1-1.33-1.8,54.56,54.56,0,0,0,.6-8.09,54,54,0,0,0-2.43-16.05,1.58,1.58,0,1,1,3-1,57.1,57.1,0,0,1,2.57,17,58.1,58.1,0,0,1-.63,8.56A1.59,1.59,0,0,1,182,152.23Z"/><path class="cls-2" d="M81.83,112.05a1.63,1.63,0,0,1-.91-.29,1.58,1.58,0,0,1-.38-2.2A57.18,57.18,0,0,1,134,85.71a1.58,1.58,0,0,1-.38,3.14,55.29,55.29,0,0,0-6.45-.38,54,54,0,0,0-44.08,22.91A1.61,1.61,0,0,1,81.83,112.05Z"/><path class="cls-2" d="M144.25,205.19a1.58,1.58,0,0,1-.42-3.1,61.6,61.6,0,0,0,19.94-9.67,1.58,1.58,0,1,1,1.87,2.55,64.6,64.6,0,0,1-21,10.16A1.59,1.59,0,0,1,144.25,205.19Z"/><path class="cls-2" d="M190.37,136.53a1.58,1.58,0,0,1-1.57-1.4A61.84,61.84,0,0,0,186.74,125a1.58,1.58,0,1,1,3-.88,63.6,63.6,0,0,1,2.16,10.7,1.58,1.58,0,0,1-1.39,1.75Z"/><path class="cls-2" d="M79.25,102.17a1.58,1.58,0,0,1-1.19-2.62,64.91,64.91,0,0,1,41.9-22,1.58,1.58,0,1,1,.35,3.14,61.73,61.73,0,0,0-39.86,20.92A1.6,1.6,0,0,1,79.25,102.17Z"/><path class="cls-2" d="M121.24,198.87a1.46,1.46,0,0,0-2.19-.91c-13.4,8.31-23.68,11.37-27.07,8-4.87-4.85,3-24.65,26.69-52.41a1.46,1.46,0,0,0-.17-2l-.11-.09a1.47,1.47,0,0,0-2.13.08C96.61,174.62,81.53,200,89.74,208.19a8.74,8.74,0,0,0,6.39,2.25c7.28,0,17.37-5.33,24.53-9.75a1.45,1.45,0,0,0,.63-1.58A2,2,0,0,0,121.24,198.87Z"/><path class="cls-2" d="M205.8,91.81c2.84,2.83,1.81,11.92-9.09,29a1.58,1.58,0,0,0-.17,1.37l0,0a1.57,1.57,0,0,0,2.8.33C206.09,112,214.44,96,208,89.57c-5.73-5.72-19.09.37-29.28,6.49-4,2.43-8.31,5.28-12.69,8.5a1.58,1.58,0,0,0-.28,2.3l0,0a1.59,1.59,0,0,0,2.14.25C187,93.25,201.6,87.62,205.8,91.81Z"/><path class="cls-2" d="M136.17,142.49a9,9,0,0,1-14.26,7.26,9.08,9.08,0,0,1-3.68-7.23,9,9,0,0,1,9-9,8.8,8.8,0,0,1,5.7,2.05l.06,0a9.08,9.08,0,0,1,3.22,6.86Z"/><path class="cls-2" d="M197.06,168.16a17.5,17.5,0,0,1-9,9c4.33,1.29,7.24,4.4,9,9a14.67,14.67,0,0,1,9-9C201.82,175.11,198.49,172.38,197.06,168.16Z"/><path class="cls-2" d="M130.45,158.65a1.58,1.58,0,0,1-.34-3.13,13.5,13.5,0,0,0-2.9-26.68,13.4,13.4,0,0,0-9.6,4,1.58,1.58,0,0,1-2.25-2.23,16.66,16.66,0,0,1,28.51,11.71,16.75,16.75,0,0,1-13.08,16.28A1.37,1.37,0,0,1,130.45,158.65Z"/><path class="cls-2" d="M130.8,166.87a1.58,1.58,0,0,1-1.56-1.34,1.6,1.6,0,0,1,1.32-1.81A21.65,21.65,0,1,0,108,132.38a1.58,1.58,0,1,1-2.8-1.46,24.81,24.81,0,1,1,25.87,35.93Z"/><path class="cls-2" d="M131,174.88a1.59,1.59,0,0,1-.19-3.16,29.6,29.6,0,1,0-31.55-39,1.58,1.58,0,1,1-3-1,32.77,32.77,0,1,1,34.92,43.18Z"/><path class="cls-2" d="M131.12,183.13A1.58,1.58,0,0,1,131,180a37.82,37.82,0,1,0-40.43-46.88,1.58,1.58,0,0,1-3.07-.77,41,41,0,1,1,43.81,50.8Z"/><path class="cls-2" d="M127.21,93.39a48.65,48.65,0,0,0-43.94,27.38,1.58,1.58,0,0,0,2.84,1.39A45.78,45.78,0,0,1,173,142.33a46.06,46.06,0,0,1-40.09,45.43,1.51,1.51,0,0,0-1.29,1.89l0,.14a1.52,1.52,0,0,0,1.63,1.1,48.94,48.94,0,0,0-6.06-97.5Z"/><path class="cls-2" d="M172.89,173.81a1.59,1.59,0,0,0-2.21.34,53.82,53.82,0,0,1-35.49,21.45,1.56,1.56,0,0,0-1.29,2v0a1.56,1.56,0,0,0,1.71,1.1A57,57,0,0,0,173.23,176,1.57,1.57,0,0,0,172.89,173.81Z"/><path class="cls-2" d="M182,152.23h-.23a1.58,1.58,0,0,1-1.33-1.8,54.56,54.56,0,0,0,.6-8.09,54,54,0,0,0-2.43-16.05,1.58,1.58,0,1,1,3-1,57.1,57.1,0,0,1,2.57,17,58.1,58.1,0,0,1-.63,8.56A1.59,1.59,0,0,1,182,152.23Z"/><path class="cls-2" d="M81.83,112.05a1.63,1.63,0,0,1-.91-.29,1.58,1.58,0,0,1-.38-2.2A57.18,57.18,0,0,1,134,85.71a1.58,1.58,0,0,1-.38,3.14,55.29,55.29,0,0,0-6.45-.38,54,54,0,0,0-44.08,22.91A1.61,1.61,0,0,1,81.83,112.05Z"/><path class="cls-2" d="M144.25,205.19a1.58,1.58,0,0,1-.42-3.1,61.6,61.6,0,0,0,19.94-9.67,1.58,1.58,0,1,1,1.87,2.55,64.6,64.6,0,0,1-21,10.16A1.59,1.59,0,0,1,144.25,205.19Z"/><path class="cls-2" d="M190.37,136.53a1.58,1.58,0,0,1-1.57-1.4A61.84,61.84,0,0,0,186.74,125a1.58,1.58,0,1,1,3-.88,63.6,63.6,0,0,1,2.16,10.7,1.58,1.58,0,0,1-1.39,1.75Z"/><path class="cls-2" d="M79.25,102.17a1.58,1.58,0,0,1-1.19-2.62,64.91,64.91,0,0,1,41.9-22,1.58,1.58,0,1,1,.35,3.14,61.73,61.73,0,0,0-39.86,20.92A1.6,1.6,0,0,1,79.25,102.17Z"/><path class="cls-3" d="M121.24,198.87a1.46,1.46,0,0,0-2.19-.91c-13.4,8.31-23.68,11.37-27.07,8-4.87-4.85,3-24.65,26.69-52.41a1.46,1.46,0,0,0-.17-2l-.11-.09a1.47,1.47,0,0,0-2.13.08C96.61,174.62,81.53,200,89.74,208.19a8.74,8.74,0,0,0,6.39,2.25c7.28,0,17.37-5.33,24.53-9.75a1.45,1.45,0,0,0,.63-1.58A2,2,0,0,0,121.24,198.87Z"/><path class="cls-3" d="M205.8,91.81c2.84,2.83,1.81,11.92-9.09,29a1.58,1.58,0,0,0-.17,1.37l0,0a1.57,1.57,0,0,0,2.8.33C206.09,112,214.44,96,208,89.57c-5.73-5.72-19.09.37-29.28,6.49-4,2.43-8.31,5.28-12.69,8.5a1.58,1.58,0,0,0-.28,2.3l0,0a1.59,1.59,0,0,0,2.14.25C187,93.25,201.6,87.62,205.8,91.81Z"/><path class="cls-3" d="M136.17,142.49a9,9,0,0,1-14.26,7.26,9.08,9.08,0,0,1-3.68-7.23,9,9,0,0,1,9-9,8.8,8.8,0,0,1,5.7,2.05l.06,0a9.08,9.08,0,0,1,3.22,6.86Z"/><path class="cls-3" d="M197.06,168.16a17.5,17.5,0,0,1-9,9c4.33,1.29,7.24,4.4,9,9a14.67,14.67,0,0,1,9-9C201.82,175.11,198.49,172.38,197.06,168.16Z"/></svg>