<svg id="Layer_1" data-name="Layer 1" xmlns="http://www.w3.org/2000/svg" viewBox="0 0 288 288"><defs><style>.cls-1,.cls-2{fill:#fff;}.cls-2{font-size:25.24px;font-family:Poppins-SemiBold, Poppins;font-weight:600;letter-spacing:0.01em;}</style></defs><title>white-logo-tall-</title><circle class="cls-1" cx="144" cy="96.33" r="59.77"/><path d="M136.5,104.43a.88.88,0,0,1-.19-1.73,7.47,7.47,0,0,0-1.6-14.76,7.41,7.41,0,0,0-5.31,2.22.88.88,0,0,1-1.24,0,.87.87,0,0,1,0-1.23,9.22,9.22,0,0,1,15.78,6.48,9.26,9.26,0,0,1-7.24,9A.62.62,0,0,1,136.5,104.43Z"/><path d="M136.7,109a.87.87,0,0,1-.87-.74.89.89,0,0,1,.73-1A12,12,0,1,0,124.07,89.9a.87.87,0,0,1-1.18.37.88.88,0,0,1-.38-1.18A13.73,13.73,0,1,1,136.83,109Z"/><path d="M136.78,113.41a.87.87,0,0,1-.1-1.74,16.38,16.38,0,1,0-17.46-21.59.88.88,0,0,1-1.66-.57,18.13,18.13,0,1,1,19.32,23.9Z"/><path d="M136.87,118a.88.88,0,0,1-.08-1.75,20.93,20.93,0,1,0-22.38-25.94.88.88,0,0,1-1.7-.42A22.68,22.68,0,1,1,137,118Z"/><path d="M134.71,68.32a26.94,26.94,0,0,0-24.32,15.15.88.88,0,0,0,.4,1.17.86.86,0,0,0,1.17-.4A25.34,25.34,0,0,1,160,95.41a25.47,25.47,0,0,1-22.18,25.13.85.85,0,0,0-.72,1l0,.08a.84.84,0,0,0,.9.61,27.08,27.08,0,0,0-3.35-54Z"/><path d="M160,112.83a.88.88,0,0,0-1.23.19,29.77,29.77,0,0,1-19.64,11.86.87.87,0,0,0-.71,1.12h0a.87.87,0,0,0,1,.61,31.56,31.56,0,0,0,20.82-12.57A.88.88,0,0,0,160,112.83Z"/><path d="M165.05,100.89h-.13a.87.87,0,0,1-.73-1,30.36,30.36,0,0,0,.33-4.47,29.66,29.66,0,0,0-1.35-8.89.89.89,0,0,1,.58-1.1.87.87,0,0,1,1.09.58,31.43,31.43,0,0,1,1.43,9.41,32.53,32.53,0,0,1-.35,4.73A.89.89,0,0,1,165.05,100.89Z"/><path d="M109.6,78.65a.87.87,0,0,1-.72-1.38,31.67,31.67,0,0,1,29.61-13.2.88.88,0,0,1-.21,1.74,30.4,30.4,0,0,0-3.57-.21,29.88,29.88,0,0,0-24.4,12.68A.87.87,0,0,1,109.6,78.65Z"/><path d="M144.14,130.19a.88.88,0,0,1-.23-1.72,33.91,33.91,0,0,0,11-5.35.88.88,0,0,1,1.22.19.87.87,0,0,1-.19,1.22,35.5,35.5,0,0,1-11.6,5.63A.85.85,0,0,1,144.14,130.19Z"/><path d="M169.66,92.19a.87.87,0,0,1-.87-.77,33.64,33.64,0,0,0-1.14-5.63.89.89,0,0,1,.6-1.09.87.87,0,0,1,1.08.6,35.1,35.1,0,0,1,1.2,5.92.88.88,0,0,1-.77,1Z"/><path d="M108.17,73.18a.88.88,0,0,1-.66-1.45A35.91,35.91,0,0,1,130.7,59.57a.86.86,0,0,1,1,.77.88.88,0,0,1-.77,1,34.14,34.14,0,0,0-22.06,11.57A.87.87,0,0,1,108.17,73.18Z"/><path d="M131.4,126.69a.8.8,0,0,0-1.21-.5c-7.41,4.6-13.1,6.29-15,4.42-2.69-2.69,1.69-13.64,14.77-29a.81.81,0,0,0-.09-1.13l-.07-.06a.81.81,0,0,0-1.17,0c-10.88,12.81-19.22,26.85-14.68,31.38a4.85,4.85,0,0,0,3.54,1.25c4,0,9.61-2.95,13.57-5.4a.81.81,0,0,0,.36-.88A.5.5,0,0,1,131.4,126.69Z"/><path d="M178.2,67.45c1.57,1.56,1,6.59-5,16a.85.85,0,0,0-.09.76v0a.86.86,0,0,0,1.54.18c3.73-5.84,8.35-14.7,4.81-18.23-3.17-3.16-10.57.2-16.2,3.59-2.24,1.34-4.6,2.92-7,4.7a.88.88,0,0,0-.15,1.28h0a.87.87,0,0,0,1.18.14C167.79,68.24,175.88,65.13,178.2,67.45Z"/><path d="M139.67,95.5a5,5,0,0,1-7.89,4,5,5,0,0,1-2-4,5,5,0,0,1,5-5,4.89,4.89,0,0,1,3.15,1.13l0,0a4.31,4.31,0,0,1,.57.56A4.9,4.9,0,0,1,139.67,95.5Z"/><path d="M173.36,109.7a9.63,9.63,0,0,1-5,5,7.61,7.61,0,0,1,5,5,8.14,8.14,0,0,1,5-5C176,113.54,174.16,112,173.36,109.7Z"/><path d="M136.5,104.43a.88.88,0,0,1-.19-1.73,7.47,7.47,0,0,0-1.6-14.76,7.41,7.41,0,0,0-5.31,2.22.88.88,0,0,1-1.24,0,.87.87,0,0,1,0-1.23,9.22,9.22,0,0,1,15.78,6.48,9.26,9.26,0,0,1-7.24,9A.62.62,0,0,1,136.5,104.43Z"/><path d="M136.7,109a.87.87,0,0,1-.87-.74.89.89,0,0,1,.73-1A12,12,0,1,0,124.07,89.9a.87.87,0,0,1-1.18.37.88.88,0,0,1-.38-1.18A13.73,13.73,0,1,1,136.83,109Z"/><path d="M136.78,113.41a.87.87,0,0,1-.1-1.74,16.38,16.38,0,1,0-17.46-21.59.88.88,0,0,1-1.66-.57,18.13,18.13,0,1,1,19.32,23.9Z"/><path d="M136.87,118a.88.88,0,0,1-.08-1.75,20.93,20.93,0,1,0-22.38-25.94.88.88,0,0,1-1.7-.42A22.68,22.68,0,1,1,137,118Z"/><path d="M134.71,68.32a26.94,26.94,0,0,0-24.32,15.15.88.88,0,0,0,.4,1.17.86.86,0,0,0,1.17-.4A25.34,25.34,0,0,1,160,95.41a25.47,25.47,0,0,1-22.18,25.13.85.85,0,0,0-.72,1l0,.08a.84.84,0,0,0,.9.61,27.08,27.08,0,0,0-3.35-54Z"/><path d="M160,112.83a.88.88,0,0,0-1.23.19,29.77,29.77,0,0,1-19.64,11.86.87.87,0,0,0-.71,1.12h0a.87.87,0,0,0,1,.61,31.56,31.56,0,0,0,20.82-12.57A.88.88,0,0,0,160,112.83Z"/><path d="M165.05,100.89h-.13a.87.87,0,0,1-.73-1,30.36,30.36,0,0,0,.33-4.47,29.66,29.66,0,0,0-1.35-8.89.89.89,0,0,1,.58-1.1.87.87,0,0,1,1.09.58,31.43,31.43,0,0,1,1.43,9.41,32.53,32.53,0,0,1-.35,4.73A.89.89,0,0,1,165.05,100.89Z"/><path d="M109.6,78.65a.87.87,0,0,1-.72-1.38,31.67,31.67,0,0,1,29.61-13.2.88.88,0,0,1-.21,1.74,30.4,30.4,0,0,0-3.57-.21,29.88,29.88,0,0,0-24.4,12.68A.87.87,0,0,1,109.6,78.65Z"/><path d="M144.14,130.19a.88.88,0,0,1-.23-1.72,33.91,33.91,0,0,0,11-5.35.88.88,0,0,1,1.22.19.87.87,0,0,1-.19,1.22,35.5,35.5,0,0,1-11.6,5.63A.85.85,0,0,1,144.14,130.19Z"/><path d="M169.66,92.19a.87.87,0,0,1-.87-.77,33.64,33.64,0,0,0-1.14-5.63.89.89,0,0,1,.6-1.09.87.87,0,0,1,1.08.6,35.1,35.1,0,0,1,1.2,5.92.88.88,0,0,1-.77,1Z"/><path d="M108.17,73.18a.88.88,0,0,1-.66-1.45A35.91,35.91,0,0,1,130.7,59.57a.86.86,0,0,1,1,.77.88.88,0,0,1-.77,1,34.14,34.14,0,0,0-22.06,11.57A.87.87,0,0,1,108.17,73.18Z"/><path d="M131.4,126.69a.8.8,0,0,0-1.21-.5c-7.41,4.6-13.1,6.29-15,4.42-2.69-2.69,1.69-13.64,14.77-29a.81.81,0,0,0-.09-1.13l-.07-.06a.81.81,0,0,0-1.17,0c-10.88,12.81-19.22,26.85-14.68,31.38a4.85,4.85,0,0,0,3.54,1.25c4,0,9.61-2.95,13.57-5.4a.81.81,0,0,0,.36-.88A.5.5,0,0,1,131.4,126.69Z"/><path d="M178.2,67.45c1.57,1.56,1,6.59-5,16a.85.85,0,0,0-.09.76v0a.86.86,0,0,0,1.54.18c3.73-5.84,8.35-14.7,4.81-18.23-3.17-3.16-10.57.2-16.2,3.59-2.24,1.34-4.6,2.92-7,4.7a.88.88,0,0,0-.15,1.28h0a.87.87,0,0,0,1.18.14C167.79,68.24,175.88,65.13,178.2,67.45Z"/><path d="M139.67,95.5a5,5,0,0,1-7.89,4,5,5,0,0,1-2-4,5,5,0,0,1,5-5,4.89,4.89,0,0,1,3.15,1.13l0,0a4.31,4.31,0,0,1,.57.56A4.9,4.9,0,0,1,139.67,95.5Z"/><path d="M173.36,109.7a9.63,9.63,0,0,1-5,5,7.61,7.61,0,0,1,5,5,8.14,8.14,0,0,1,5-5C176,113.54,174.16,112,173.36,109.7Z"/><path class="cls-1" d="M39.15,213.21V175.92H51.78a8.21,8.21,0,0,1,5.42,1.58,5.72,5.72,0,0,1,1.9,4.66v6.63a15.8,15.8,0,0,1-.6,4.45,6.19,6.19,0,0,1-2.28,3.31,7.89,7.89,0,0,1-4.82,1.26H45.47v15.4Zm6.32-18.8h3.84a3.14,3.14,0,0,0,2.84-1.49,9.16,9.16,0,0,0,1-4.82v-3.35a8.1,8.1,0,0,0-.82-4.23A2.57,2.57,0,0,0,50,179.26H45.47Z"/><path class="cls-1" d="M69.51,213.72a9.86,9.86,0,0,1-3-.45,4.48,4.48,0,0,1-2.4-1.86,7.8,7.8,0,0,1-1-4.38V203.3a6.82,6.82,0,0,1,1.8-5,15.59,15.59,0,0,1,5.4-3.31,34.52,34.52,0,0,0,3.31-1.58,4.74,4.74,0,0,0,1.8-1.64,5,5,0,0,0,.57-2.59v-1.58a3,3,0,0,0-.48-1.83,2.64,2.64,0,0,0-1.2-.91,4.53,4.53,0,0,0-1.67-.28,2.8,2.8,0,0,0-2.74,1.26,9.18,9.18,0,0,0-.67,4v2.65H63.89v-3.22a12.51,12.51,0,0,1,.63-4.14,5.14,5.14,0,0,1,2.53-2.83,11.84,11.84,0,0,1,5.61-1,17.37,17.37,0,0,1,5.84.76,4.77,4.77,0,0,1,2.74,2.3,8.94,8.94,0,0,1,.76,3.95v24.86H76.07v-3.6a5.24,5.24,0,0,1-2.49,3A8,8,0,0,1,69.51,213.72Zm2.46-4A3.27,3.27,0,0,0,75,208.2a8.58,8.58,0,0,0,.91-4.33V195.1a4,4,0,0,1-1.57,1.39c-.76.42-1.5.86-2.21,1.32a8.9,8.9,0,0,0-2.4,2,4.52,4.52,0,0,0-.82,2.87v3a6.49,6.49,0,0,0,.41,2.62,2.13,2.13,0,0,0,1.13,1.2A4.06,4.06,0,0,0,72,209.74Z"/><path class="cls-1" d="M87.62,213.21V182h5l.57,3.59a5.33,5.33,0,0,1,2.34-3,7,7,0,0,1,3.72-1,8.13,8.13,0,0,1,4.64,1.08,5.07,5.07,0,0,1,2,2.93,16.61,16.61,0,0,1,.5,4.26v23.41h-5.93v-23c0-.59,0-1.16-.06-1.7a3.82,3.82,0,0,0-.38-1.45,2.34,2.34,0,0,0-1-1,4.22,4.22,0,0,0-2-.38,3.58,3.58,0,0,0-1.8.41,3.35,3.35,0,0,0-1.1.94,5,5,0,0,0-.57,1v25.11Z"/><path class="cls-1" d="M110,213.21l7.26-37.29h8.45l7.13,37.29h-6.69l-1.51-7.57h-6.81l-1.39,7.57Zm8-10.66h6.63l-3.28-20.76Z"/><path class="cls-1" d="M137.66,213.21V186.64h-2v-3.47h2v-3.28a9.13,9.13,0,0,1,.53-3.34,4.79,4.79,0,0,1,1.42-2,5.39,5.39,0,0,1,2.06-1,10.11,10.11,0,0,1,2.43-.28c.75,0,1.53,0,2.33.06s1.52.09,2.18.16,1.1.09,1.35.09v3c-1.64-.17-2.94-.25-3.91-.25a1.91,1.91,0,0,0-2,1.2,6.2,6.2,0,0,0-.51,2.46v3.21H150v3.47h-6.37v26.57Z"/><path class="cls-1" d="M153.62,213.21V182h5l.51,3.59a4.64,4.64,0,0,1,1.95-2.36,9.29,9.29,0,0,1,2.72-1.11,7.07,7.07,0,0,1,4-.25v4.54a8,8,0,0,0-.95-.16,9.41,9.41,0,0,0-1.7,0,4.09,4.09,0,0,0-1.64.44,5.13,5.13,0,0,0-2.9,1.8,5.35,5.35,0,0,0-1.07,3.44v21.33Z"/><path class="cls-1" d="M174.32,178.44a3.08,3.08,0,0,1-2.21-.91,3.21,3.21,0,0,1-1-2.18,3,3,0,0,1,1-2.24,3.26,3.26,0,0,1,4.54,0,3,3,0,0,1,.95,2.24,2.68,2.68,0,0,1-.92,2.18A3.25,3.25,0,0,1,174.32,178.44Zm-3,34.77V182h5.93v31.23Z"/><path class="cls-1" d="M192.31,213.72A17.46,17.46,0,0,1,187,213a5.25,5.25,0,0,1-3.15-2.77,14.24,14.24,0,0,1-1-6.19V189.67c0-3.15.75-5.32,2.27-6.5s3.87-1.76,7.07-1.76,5.55.57,7.06,1.7,2.28,3.2,2.28,6.18v4.36h-5.94V189a5.48,5.48,0,0,0-.69-3.15,3.2,3.2,0,0,0-2.71-.95,3.23,3.23,0,0,0-2.69.95,5.3,5.3,0,0,0-.72,3.15v16.85a5.58,5.58,0,0,0,.72,3.28,3.4,3.4,0,0,0,2.81,1,3.09,3.09,0,0,0,2.59-.92,5.73,5.73,0,0,0,.69-3.31V201h5.94v3.09a14.21,14.21,0,0,1-1.05,6.15,5.23,5.23,0,0,1-3.09,2.81A15.84,15.84,0,0,1,192.31,213.72Z"/><path class="cls-1" d="M212.18,213.72a9.9,9.9,0,0,1-3-.45,4.5,4.5,0,0,1-2.39-1.86,7.72,7.72,0,0,1-1-4.38V203.3a6.82,6.82,0,0,1,1.8-5A15.54,15.54,0,0,1,213,195a34.52,34.52,0,0,0,3.31-1.58,4.67,4.67,0,0,0,1.8-1.64,5,5,0,0,0,.57-2.59v-1.58a3.09,3.09,0,0,0-.47-1.83,2.75,2.75,0,0,0-1.2-.91,4.57,4.57,0,0,0-1.67-.28,2.81,2.81,0,0,0-2.75,1.26,9.2,9.2,0,0,0-.66,4v2.65h-5.36v-3.22a12.51,12.51,0,0,1,.63-4.14,5.16,5.16,0,0,1,2.52-2.83,11.86,11.86,0,0,1,5.62-1,17.3,17.3,0,0,1,5.83.76,4.79,4.79,0,0,1,2.75,2.3,9.09,9.09,0,0,1,.76,3.95v24.86h-5.94v-3.6a5.24,5.24,0,0,1-2.49,3A8,8,0,0,1,212.18,213.72Zm2.46-4a3.27,3.27,0,0,0,3.06-1.54,8.58,8.58,0,0,0,.92-4.33V195.1a4,4,0,0,1-1.58,1.39c-.76.42-1.49.86-2.21,1.32a9.06,9.06,0,0,0-2.4,2,4.58,4.58,0,0,0-.82,2.87v3a6.67,6.67,0,0,0,.41,2.62,2.17,2.17,0,0,0,1.14,1.2A4,4,0,0,0,214.64,209.74Z"/><path class="cls-1" d="M230.29,213.21V182h5l.57,3.59a5.35,5.35,0,0,1,2.33-3,7.06,7.06,0,0,1,3.72-1,8.11,8.11,0,0,1,4.64,1.08,5,5,0,0,1,2.05,2.93,16.15,16.15,0,0,1,.51,4.26v23.41h-5.93v-23c0-.59,0-1.16-.07-1.7a3.65,3.65,0,0,0-.38-1.45,2.32,2.32,0,0,0-1-1,4.24,4.24,0,0,0-2-.38,3.53,3.53,0,0,0-1.8.41,3.39,3.39,0,0,0-1.11.94,4.49,4.49,0,0,0-.56,1v25.11Z"/><text class="cls-2" transform="translate(36.71 244.47)">SPACE INDUSTRY</text></svg>